<svg width="16" height="16" viewBox="0 0 16 16" fill="none" xmlns="http://www.w3.org/2000/svg">
<path fill-rule="evenodd" clip-rule="evenodd" d="M7.88883 0H8.11106V1.33333H9.33334L9.33333 1.33406C9.33506 2.7064 9.86505 4.0237 10.8105 5.01408L12.6207 3.20387L12.7778 3.361L10.9672 5.1716C11.9599 6.12842 13.2854 6.66512 14.6667 6.66667V7.88878H16V8.111H14.6667V9.33333C13.2875 9.33488 11.9639 9.86994 10.9718 10.824L12.7797 12.632L12.6226 12.7891L10.8148 10.9814C9.86659 11.9723 9.33497 13.2917 9.33333 14.6663L9.33333 14.6664L9.33333 14.6667H8.11106V16H7.88883V14.6667H6.66667L6.66667 14.6664V14.6663C6.66502 13.2852 6.12834 11.9598 5.1716 10.9672L3.34974 12.7891L3.19261 12.632L5.01408 10.8105C4.02353 9.86488 2.70593 9.33488 1.33333 9.33333L1.33333 8.111H0V7.88878H1.33333L1.33334 6.66667C2.70804 6.66512 4.02758 6.13349 5.01865 5.18515L3.1945 3.361L3.35163 3.20387L5.17598 5.02821C6.12989 4.03626 6.66493 2.71294 6.66667 1.33406V1.33401L6.66667 1.33333H7.88883V0Z" fill="url(#paint0_diamond_2509_145805)" style=""/>
<path fill-rule="evenodd" clip-rule="evenodd" d="M5.17582 5.02895L6.42662 6.27975C6.64519 6.49832 7.00144 6.49744 7.20482 6.26465C7.41162 6.02795 7.60632 5.78231 7.78852 5.52872C7.85444 5.43696 7.88851 5.3264 7.88851 5.21342V1.33398L8.11073 1.33398V5.21296C8.11073 5.32593 8.1448 5.43649 8.21071 5.52824C8.38899 5.77643 8.57926 6.017 8.78113 6.24904C8.98431 6.48257 9.34115 6.48382 9.56004 6.26494L10.8103 5.01465C10.8389 5.04456 10.8678 5.07416 10.8971 5.10347C10.9202 5.1266 10.9436 5.1495 10.9671 5.17217L9.71594 6.4233C9.49745 6.64179 9.49823 6.99785 9.73078 7.20129C9.96908 7.40976 10.2165 7.60595 10.4719 7.78945C10.5637 7.85536 10.6742 7.88943 10.7872 7.88943H14.6666V8.11165H10.7869C10.6739 8.11165 10.5633 8.14572 10.4716 8.21164C10.218 8.39385 9.97229 8.58857 9.73556 8.7954C9.50278 8.99878 9.50189 9.35503 9.72047 9.5736L10.9716 10.8248C10.9466 10.8488 10.9217 10.8732 10.8971 10.8978C10.8693 10.9256 10.8418 10.9537 10.8147 10.9821L9.56399 9.73139C9.3452 9.5126 8.98854 9.51374 8.7853 9.74704C8.58188 9.98056 8.39022 10.2227 8.2107 10.4726C8.1448 10.5644 8.11073 10.6749 8.11073 10.7879V14.6673H7.88851V10.7875C7.88851 10.6745 7.85444 10.5639 7.78852 10.4722C7.6051 10.2168 7.409 9.96961 7.20064 9.73144C6.99719 9.49888 6.64113 9.49811 6.42265 9.71659L5.17143 10.9678C5.14877 10.9443 5.12587 10.921 5.10273 10.8978C5.07343 10.8685 5.04382 10.8396 5.01391 10.8111L6.26428 9.56069C6.48317 9.34181 6.48192 8.98496 6.24838 8.78179C6.01647 8.58002 5.77604 8.38985 5.52799 8.21164C5.43623 8.14572 5.32567 8.11165 5.21269 8.11165H1.33325L1.33325 7.88943H5.21239C5.32536 7.88943 5.43591 7.85536 5.52767 7.78945C5.77754 7.60996 6.01968 7.41831 6.25317 7.21491C6.48648 7.01168 6.48761 6.65501 6.26883 6.43623L5.01848 5.18588C5.04684 5.15875 5.07492 5.13128 5.10274 5.10347C5.12736 5.07884 5.15172 5.054 5.17582 5.02895Z" fill="white" style="fill:white;fill-opacity:1;"/>
<defs>
<radialGradient id="paint0_diamond_2509_145805" cx="0" cy="0" r="1" gradientUnits="userSpaceOnUse" gradientTransform="translate(8 8) rotate(90) scale(8)">
<stop stop-color="#00FFF0" style="stop-color:#00FFF0;stop-color:color(display-p3 0.0000 1.0000 0.9400);stop-opacity:1;"/>
<stop offset="1" stop-color="#0201ED" style="stop-color:#0201ED;stop-color:color(display-p3 0.0078 0.0039 0.9294);stop-opacity:1;"/>
</radialGradient>
</defs>
</svg>
