<svg viewBox="0 0 16 16" fill="none" xmlns="http://www.w3.org/2000/svg">
  <mask id="path-1-inside-1_3793_36857" fill="white">
    <path
      fill-rule="evenodd"
      clip-rule="evenodd"
      d="M5.57367 3.59696C5.40196 2.12551 6.55196 0.833496 8.0334 0.833496C9.48217 0.833496 10.6215 2.07172 10.5013 3.51549L10.3017 5.91103L13.8246 7.08364C14.3281 7.25124 14.6672 7.72307 14.6656 8.25375L14.646 14.4862C14.6449 14.8533 14.3473 15.1504 13.9802 15.1508L1.50102 15.1668C1.294 15.1671 1.0986 15.0712 0.972199 14.9072C0.845795 14.7433 0.802731 14.5299 0.855652 14.3297L1.00357 13.7703C1.20944 12.9917 1.31367 12.1897 1.31366 11.3844L1.31361 8.04559C1.3136 7.49609 1.67832 7.01334 2.2069 6.86319L5.83458 5.8327L5.57367 3.59696ZM8.0334 2.16683C7.34958 2.16683 6.81876 2.76321 6.89802 3.44241L7.22469 6.24168C7.2626 6.56652 7.05928 6.87089 6.74469 6.96025L2.64695 8.12427L2.64696 9.07861H13.3296L13.332 8.32493L9.38329 7.01059C9.09144 6.91344 8.90394 6.62923 8.92947 6.3227L9.17253 3.4048C9.22805 2.73838 8.70213 2.16683 8.0334 2.16683ZM2.64699 11.3843L2.64698 10.4119H13.3255L13.3148 13.8183L6.00019 13.8277V11.6668H4.66686V13.8294L2.36231 13.8324C2.5514 13.0304 2.647 12.2089 2.64699 11.3843Z"
    />
  </mask>
  <path
    fill-rule="evenodd"
    clip-rule="evenodd"
    d="M5.57367 3.59696C5.40196 2.12551 6.55196 0.833496 8.0334 0.833496C9.48217 0.833496 10.6215 2.07172 10.5013 3.51549L10.3017 5.91103L13.8246 7.08364C14.3281 7.25124 14.6672 7.72307 14.6656 8.25375L14.646 14.4862C14.6449 14.8533 14.3473 15.1504 13.9802 15.1508L1.50102 15.1668C1.294 15.1671 1.0986 15.0712 0.972199 14.9072C0.845795 14.7433 0.802731 14.5299 0.855652 14.3297L1.00357 13.7703C1.20944 12.9917 1.31367 12.1897 1.31366 11.3844L1.31361 8.04559C1.3136 7.49609 1.67832 7.01334 2.2069 6.86319L5.83458 5.8327L5.57367 3.59696ZM8.0334 2.16683C7.34958 2.16683 6.81876 2.76321 6.89802 3.44241L7.22469 6.24168C7.2626 6.56652 7.05928 6.87089 6.74469 6.96025L2.64695 8.12427L2.64696 9.07861H13.3296L13.332 8.32493L9.38329 7.01059C9.09144 6.91344 8.90394 6.62923 8.92947 6.3227L9.17253 3.4048C9.22805 2.73838 8.70213 2.16683 8.0334 2.16683ZM2.64699 11.3843L2.64698 10.4119H13.3255L13.3148 13.8183L6.00019 13.8277V11.6668H4.66686V13.8294L2.36231 13.8324C2.5514 13.0304 2.647 12.2089 2.64699 11.3843Z"
    fill="currentColor"
  />
  <path
    d="M6.89802 3.44241L10.2503 3.05121L10.2503 3.05121L6.89802 3.44241ZM7.22469 6.24168L3.87244 6.63289L3.87244 6.6329L7.22469 6.24168ZM6.74469 6.96025L5.82246 3.7137L5.82246 3.7137L6.74469 6.96025ZM2.64695 8.12427L1.72472 4.87772L-0.72809 5.57447L-0.728055 8.12432L2.64695 8.12427ZM2.64696 9.07861L-0.728041 9.07866L-0.727994 12.4536H2.64696V9.07861ZM13.3296 9.07861V12.4536H16.6941L16.7046 9.08919L13.3296 9.07861ZM13.332 8.32493L16.707 8.33551L16.7146 5.89381L14.3979 5.12267L13.332 8.32493ZM9.38329 7.01059L10.4492 3.80832L10.4492 3.80832L9.38329 7.01059ZM8.92947 6.3227L5.56612 6.04253L8.92947 6.3227ZM9.17253 3.4048L5.80918 3.12463V3.12464L9.17253 3.4048ZM2.64698 10.4119V7.03695H-0.728069L-0.728023 10.412L2.64698 10.4119ZM2.64699 11.3843L6.02199 11.3843L2.64699 11.3843ZM13.3255 10.4119L16.7004 10.4225L16.711 7.03695H13.3255V10.4119ZM13.3148 13.8183L13.3191 17.1933L16.6792 17.189L16.6898 13.8289L13.3148 13.8183ZM6.00019 13.8277H2.62519V17.2071L6.00452 17.2027L6.00019 13.8277ZM6.00019 11.6668H9.37519V8.29183H6.00019V11.6668ZM4.66686 11.6668V8.29183H1.29186V11.6668H4.66686ZM4.66686 13.8294L4.67119 17.2044L8.04186 17.2001V13.8294H4.66686ZM2.36231 13.8324L-0.922616 13.0579L-1.9023 17.2129L2.36664 17.2074L2.36231 13.8324ZM5.57367 3.59696L8.92592 3.20576V3.20576L5.57367 3.59696ZM10.5013 3.51549L7.13792 3.23532L7.13791 3.23532L10.5013 3.51549ZM10.3017 5.91103L6.93836 5.63086L6.71808 8.27525L9.23582 9.1133L10.3017 5.91103ZM13.8246 7.08364L12.7587 10.2859L12.7587 10.2859L13.8246 7.08364ZM14.6656 8.25375L11.2906 8.24317V8.24318L14.6656 8.25375ZM14.646 14.4862L11.271 14.4757V14.4757L14.646 14.4862ZM13.9802 15.1508L13.9846 18.5258H13.9846L13.9802 15.1508ZM1.50102 15.1668L1.50534 18.5418H1.50535L1.50102 15.1668ZM0.972199 14.9072L3.64505 12.8465L3.64504 12.8465L0.972199 14.9072ZM0.855652 14.3297L4.11852 15.1925L4.11852 15.1925L0.855652 14.3297ZM1.00357 13.7703L4.26643 14.6331L4.26644 14.6331L1.00357 13.7703ZM1.31366 11.3844L4.68866 11.3843L1.31366 11.3844ZM1.31361 8.04559L4.68861 8.04555L1.31361 8.04559ZM2.2069 6.86319L3.12913 10.1097L3.12913 10.1097L2.2069 6.86319ZM5.83458 5.8327L6.75681 9.07925L9.51976 8.2944L9.18683 5.44149L5.83458 5.8327ZM10.2503 3.05121C10.405 4.37737 9.36858 5.54183 8.0334 5.54183V-1.20817C5.33059 -1.20817 3.23248 1.14904 3.54577 3.83362L10.2503 3.05121ZM10.5769 5.85048L10.2503 3.05121L3.54577 3.83362L3.87244 6.63289L10.5769 5.85048ZM7.66691 10.2068C9.57413 9.66504 10.8068 7.8198 10.5769 5.85047L3.87244 6.6329C3.71843 5.31324 4.54443 4.07674 5.82246 3.7137L7.66691 10.2068ZM3.56917 11.3708L7.66692 10.2068L5.82246 3.7137L1.72472 4.87772L3.56917 11.3708ZM6.02196 9.07857L6.02195 8.12423L-0.728055 8.12432L-0.728041 9.07866L6.02196 9.07857ZM13.3296 5.70361H2.64696V12.4536H13.3296V5.70361ZM9.95701 8.31436L9.95465 9.06804L16.7046 9.08919L16.707 8.33551L9.95701 8.31436ZM8.3174 10.2129L12.2661 11.5272L14.3979 5.12267L10.4492 3.80832L8.3174 10.2129ZM5.56612 6.04253C5.41132 7.90088 6.54805 9.62391 8.3174 10.2129L10.4492 3.80832C11.6348 4.20297 12.3966 5.35758 12.2928 6.60287L5.56612 6.04253ZM5.80918 3.12464L5.56612 6.04253L12.2928 6.60287L12.5359 3.68497L5.80918 3.12464ZM8.0334 5.54183C6.72766 5.54183 5.70079 4.42586 5.80918 3.12463L12.5359 3.68497C12.7553 1.05089 10.6766 -1.20817 8.0334 -1.20817V5.54183ZM-0.728023 10.412L-0.728009 11.3844L6.02199 11.3843L6.02198 10.4119L-0.728023 10.412ZM13.3255 7.03695H2.64698V13.7869H13.3255V7.03695ZM16.6898 13.8289L16.7004 10.4225L9.95047 10.4014L9.9398 13.8078L16.6898 13.8289ZM6.00452 17.2027L13.3191 17.1933L13.3105 10.4433L5.99586 10.4527L6.00452 17.2027ZM2.62519 11.6668V13.8277H9.37519V11.6668H2.62519ZM4.66686 15.0418H6.00019V8.29183H4.66686V15.0418ZM8.04186 13.8294V11.6668H1.29186V13.8294H8.04186ZM2.36664 17.2074L4.67119 17.2044L4.66253 10.4544L2.35798 10.4574L2.36664 17.2074ZM-0.728009 11.3844C-0.728001 11.9481 -0.793357 12.5096 -0.922616 13.0579L5.64723 14.6069C5.89615 13.5512 6.02201 12.4698 6.02199 11.3843L-0.728009 11.3844ZM8.0334 -2.5415C4.53296 -2.5415 1.81568 0.511345 2.22142 3.98817L8.92592 3.20576C8.98823 3.73968 8.57095 4.2085 8.0334 4.2085V-2.5415ZM13.8646 3.79566C14.1488 0.384235 11.4566 -2.5415 8.0334 -2.5415V4.2085C7.5077 4.2085 7.09427 3.7592 7.13792 3.23532L13.8646 3.79566ZM13.6651 6.1912L13.8646 3.79566L7.13791 3.23532L6.93836 5.63086L13.6651 6.1912ZM14.8905 3.88138L11.3676 2.70877L9.23582 9.1133L12.7587 10.2859L14.8905 3.88138ZM18.0405 8.26434C18.0468 6.27652 16.7766 4.50917 14.8905 3.88138L12.7587 10.2859C11.8797 9.99332 11.2877 9.16962 11.2906 8.24317L18.0405 8.26434ZM18.021 14.4968L18.0405 8.26433L11.2906 8.24318L11.271 14.4757L18.021 14.4968ZM13.9846 18.5258C16.2097 18.523 18.014 16.722 18.021 14.4968L11.271 14.4757C11.2757 12.9846 12.4848 11.7777 13.9759 11.7758L13.9846 18.5258ZM1.50535 18.5418L13.9846 18.5258L13.9759 11.7758L1.4967 11.7918L1.50535 18.5418ZM-1.70065 16.9679C-0.934326 17.9619 0.250273 18.5434 1.50534 18.5418L1.49671 11.7918C2.33773 11.7908 3.13153 12.1805 3.64505 12.8465L-1.70065 16.9679ZM-2.40722 13.467C-2.72805 14.6804 -2.46698 15.974 -1.70064 16.9679L3.64504 12.8465C4.15856 13.5126 4.33351 14.3794 4.11852 15.1925L-2.40722 13.467ZM-2.2593 12.9076L-2.40722 13.467L4.11852 15.1925L4.26643 14.6331L-2.2593 12.9076ZM-2.06134 11.3844C-2.06134 11.8986 -2.12787 12.4105 -2.2593 12.9076L4.26644 14.6331C4.54675 13.5729 4.68867 12.4809 4.68866 11.3843L-2.06134 11.3844ZM-2.06139 8.04564L-2.06134 11.3844L4.68866 11.3843L4.68861 8.04555L-2.06139 8.04564ZM1.28468 3.61663C-0.695294 4.17907 -2.06142 5.98735 -2.06139 8.04564L4.68861 8.04555C4.68862 9.00484 4.05193 9.84761 3.12913 10.1097L1.28468 3.61663ZM4.91235 2.58614L1.28468 3.61663L3.12913 10.1097L6.75681 9.07925L4.91235 2.58614ZM2.22142 3.98817L2.48233 6.2239L9.18683 5.44149L8.92592 3.20576L2.22142 3.98817Z"
    fill="currentColor"
    mask="url(#path-1-inside-1_3793_36857)"
  />
</svg>
