<svg viewBox="0 0 16 16" fill="none" xmlns="http://www.w3.org/2000/svg">
  <g filter="url(#filter0_d_1391_108150)">
    <mask
      id="path-1-outside-1_1391_108150"
      maskUnits="userSpaceOnUse"
      x="3.39062"
      y="1.79883"
      width="11"
      height="13"
      fill="black"
    >
      <rect fill="white" x="3.39062" y="1.79883" width="11" height="13" />
      <path
        fill-rule="evenodd"
        clip-rule="evenodd"
        d="M6.78169 8.05917V5.18989H9.17276C9.96509 5.18989 10.6074 5.83221 10.6074 6.62453C10.6074 7.41686 9.96509 8.05917 9.17276 8.05917H6.78169ZM4.39062 3.99436C4.39062 3.33409 4.92588 2.79883 5.58616 2.79883H9.17276C11.2856 2.79883 12.9985 4.51165 12.9985 6.62453C12.9985 8.73741 11.2856 10.4502 9.17276 10.4502H6.78169L6.78169 12.598C6.78169 13.2583 6.24643 13.7935 5.58616 13.7935C4.92588 13.7935 4.39062 13.2583 4.39062 12.598V10.4502V9.72874V8.05917V3.99436Z"
      />
    </mask>
    <path
      fill-rule="evenodd"
      clip-rule="evenodd"
      d="M6.78169 8.05917V5.18989H9.17276C9.96509 5.18989 10.6074 5.83221 10.6074 6.62453C10.6074 7.41686 9.96509 8.05917 9.17276 8.05917H6.78169ZM4.39062 3.99436C4.39062 3.33409 4.92588 2.79883 5.58616 2.79883H9.17276C11.2856 2.79883 12.9985 4.51165 12.9985 6.62453C12.9985 8.73741 11.2856 10.4502 9.17276 10.4502H6.78169L6.78169 12.598C6.78169 13.2583 6.24643 13.7935 5.58616 13.7935C4.92588 13.7935 4.39062 13.2583 4.39062 12.598V10.4502V9.72874V8.05917V3.99436Z"
      fill="#FF891C"
    />
    <path
      d="M6.78169 5.18989V4.18989C6.22941 4.18989 5.78169 4.63761 5.78169 5.18989H6.78169ZM6.78169 8.05917H5.78169C5.78169 8.61146 6.22941 9.05917 6.78169 9.05917V8.05917ZM6.78169 10.4502V9.45024C6.51647 9.45024 6.26212 9.5556 6.07458 9.74313C5.88705 9.93067 5.78169 10.185 5.78169 10.4502L6.78169 10.4502ZM6.78169 12.598H7.78169H6.78169ZM5.78169 5.18989V8.05917H7.78169V5.18989H5.78169ZM9.17276 4.18989H6.78169V6.18989H9.17276V4.18989ZM11.6074 6.62453C11.6074 5.27992 10.5174 4.18989 9.17276 4.18989V6.18989C9.4128 6.18989 9.6074 6.38449 9.6074 6.62453H11.6074ZM9.17276 9.05917C10.5174 9.05917 11.6074 7.96915 11.6074 6.62453H9.6074C9.6074 6.86458 9.4128 7.05917 9.17276 7.05917V9.05917ZM6.78169 9.05917H9.17276V7.05917H6.78169V9.05917ZM5.58616 1.79883C4.3736 1.79883 3.39062 2.7818 3.39062 3.99436H5.39062C5.39062 3.88637 5.47817 3.79883 5.58616 3.79883V1.79883ZM9.17276 1.79883H5.58616V3.79883H9.17276V1.79883ZM13.9985 6.62453C13.9985 3.95937 11.8379 1.79883 9.17276 1.79883V3.79883C10.7334 3.79883 11.9985 5.06394 11.9985 6.62453H13.9985ZM9.17276 11.4502C11.8379 11.4502 13.9985 9.2897 13.9985 6.62453H11.9985C11.9985 8.18513 10.7334 9.45024 9.17276 9.45024V11.4502ZM6.78169 11.4502H9.17276V9.45024H6.78169V11.4502ZM5.78169 10.4502L5.78169 12.598H7.78169L7.78169 10.4502L5.78169 10.4502ZM5.78169 12.598C5.78169 12.706 5.69415 12.7935 5.58616 12.7935V14.7935C6.79872 14.7935 7.78169 13.8106 7.78169 12.598H5.78169ZM5.58616 12.7935C5.47817 12.7935 5.39062 12.706 5.39062 12.598H3.39062C3.39062 13.8106 4.3736 14.7935 5.58616 14.7935V12.7935ZM5.39062 12.598V10.4502H3.39062V12.598H5.39062ZM5.39062 10.4502V9.72874H3.39062V10.4502H5.39062ZM3.39062 8.05917V9.72874H5.39062V8.05917H3.39062ZM3.39062 3.99436V8.05917H5.39062V3.99436H3.39062Z"
      fill="white"
      mask="url(#path-1-outside-1_1391_108150)"
    />
  </g>
  <path
    fill-rule="evenodd"
    clip-rule="evenodd"
    d="M6.78169 8.05917V5.18989H9.17276C9.96509 5.18989 10.6074 5.83221 10.6074 6.62453C10.6074 7.41686 9.96509 8.05917 9.17276 8.05917H6.78169ZM4.39062 3.99436C4.39062 3.33409 4.92588 2.79883 5.58616 2.79883H9.17276C11.2856 2.79883 12.9985 4.51165 12.9985 6.62453C12.9985 8.73741 11.2856 10.4502 9.17276 10.4502H6.78169L6.78169 12.598C6.78169 13.2583 6.24643 13.7935 5.58616 13.7935C4.92588 13.7935 4.39062 13.2583 4.39062 12.598V10.4502V9.72874V8.05917V3.99436Z"
    fill="#FF891C"
  />
  <defs>
    <filter
      id="filter0_d_1391_108150"
      x="2.43474"
      y="0.842946"
      width="12.5192"
      height="14.9069"
      filterUnits="userSpaceOnUse"
      color-interpolation-filters="sRGB"
    >
      <feFlood flood-opacity="0" result="BackgroundImageFix" />
      <feColorMatrix
        in="SourceAlpha"
        type="matrix"
        values="0 0 0 0 0 0 0 0 0 0 0 0 0 0 0 0 0 0 127 0"
        result="hardAlpha"
      />
      <feOffset />
      <feGaussianBlur stdDeviation="0.477941" />
      <feComposite in2="hardAlpha" operator="out" />
      <feColorMatrix type="matrix" values="0 0 0 0 0 0 0 0 0 0 0 0 0 0 0 0 0 0 0.4 0" />
      <feBlend mode="normal" in2="BackgroundImageFix" result="effect1_dropShadow_1391_108150" />
      <feBlend mode="normal" in="SourceGraphic" in2="effect1_dropShadow_1391_108150" result="shape" />
    </filter>
  </defs>
</svg>
