<svg viewBox="0 0 16 16" fill="none" xmlns="http://www.w3.org/2000/svg">
  <g clip-path="url(#clip0_1274_57967)">
    <g filter="url(#filter0_d_1274_57967)">
      <mask
        id="path-1-outside-1_1274_57967"
        maskUnits="userSpaceOnUse"
        x="0.5"
        y="0.5"
        width="15"
        height="15"
        fill="black"
      >
        <rect fill="white" x="0.5" y="0.5" width="15" height="15" />
        <path
          fill-rule="evenodd"
          clip-rule="evenodd"
          d="M4.5 2.5C3.39543 2.5 2.5 3.39543 2.5 4.5V11.5C2.5 12.6046 3.39543 13.5 4.5 13.5H11.5C12.6046 13.5 13.5 12.6046 13.5 11.5V5.8501C12.2691 6.92148 11.376 8.24438 10.568 9.8618C10.3591 10.2798 9.85088 10.4494 9.43284 10.2406C9.01479 10.0317 8.84521 9.52349 9.05407 9.10544C9.35459 8.50394 9.54123 7.77334 9.50947 7.25837C9.49385 7.00508 9.43158 6.89623 9.40349 6.86312L9.40295 6.86241C9.39752 6.85502 9.35989 6.80377 9.16929 6.80377C8.81931 6.80377 8.32605 7.07389 7.73011 7.81299C7.16477 8.51411 6.65003 9.46245 6.23347 10.3947C6.04282 10.8213 5.54239 11.0126 5.11573 10.822C4.68907 10.6313 4.49775 10.1309 4.6884 9.70425C5.13179 8.712 5.71631 7.61442 6.4127 6.75074C7.07849 5.92503 8.00944 5.11146 9.16929 5.11146C9.77942 5.11146 10.3177 5.32487 10.6939 5.76824C10.7846 5.87513 10.8602 5.98882 10.923 6.10653C11.4108 5.49692 11.9566 4.92966 12.582 4.40927C12.7493 4.27012 12.9219 4.13459 13.1002 4.00271C12.5819 3.10452 11.6115 2.5 10.5 2.5H4.5Z"
        />
      </mask>
      <path
        fill-rule="evenodd"
        clip-rule="evenodd"
        d="M4.5 2.5C3.39543 2.5 2.5 3.39543 2.5 4.5V11.5C2.5 12.6046 3.39543 13.5 4.5 13.5H11.5C12.6046 13.5 13.5 12.6046 13.5 11.5V5.8501C12.2691 6.92148 11.376 8.24438 10.568 9.8618C10.3591 10.2798 9.85088 10.4494 9.43284 10.2406C9.01479 10.0317 8.84521 9.52349 9.05407 9.10544C9.35459 8.50394 9.54123 7.77334 9.50947 7.25837C9.49385 7.00508 9.43158 6.89623 9.40349 6.86312L9.40295 6.86241C9.39752 6.85502 9.35989 6.80377 9.16929 6.80377C8.81931 6.80377 8.32605 7.07389 7.73011 7.81299C7.16477 8.51411 6.65003 9.46245 6.23347 10.3947C6.04282 10.8213 5.54239 11.0126 5.11573 10.822C4.68907 10.6313 4.49775 10.1309 4.6884 9.70425C5.13179 8.712 5.71631 7.61442 6.4127 6.75074C7.07849 5.92503 8.00944 5.11146 9.16929 5.11146C9.77942 5.11146 10.3177 5.32487 10.6939 5.76824C10.7846 5.87513 10.8602 5.98882 10.923 6.10653C11.4108 5.49692 11.9566 4.92966 12.582 4.40927C12.7493 4.27012 12.9219 4.13459 13.1002 4.00271C12.5819 3.10452 11.6115 2.5 10.5 2.5H4.5Z"
        fill="#28CD5A"
      />
      <path
        d="M13.5 5.8501H14.875C14.875 5.31124 14.5602 4.82204 14.0698 4.59873C13.5794 4.37542 13.0037 4.45916 12.5973 4.81295L13.5 5.8501ZM10.568 9.8618L9.33792 9.24726V9.24726L10.568 9.8618ZM9.43284 10.2406L10.0474 9.01053L10.0474 9.01053L9.43284 10.2406ZM9.05407 9.10544L7.82404 8.49091L7.82404 8.49091L9.05407 9.10544ZM9.50947 7.25837L10.8819 7.17374L9.50947 7.25837ZM9.40349 6.86312L8.30735 7.69324C8.32269 7.71351 8.3386 7.73334 8.35504 7.75272L9.40349 6.86312ZM9.40295 6.86241L8.29472 7.67632C8.29871 7.68175 8.30274 7.68716 8.30681 7.69253L9.40295 6.86241ZM7.73011 7.81299L8.80049 8.67606L8.80049 8.67606L7.73011 7.81299ZM6.23347 10.3947L7.48884 10.9556V10.9556L6.23347 10.3947ZM5.11573 10.822L5.67669 9.56663L5.67669 9.56662L5.11573 10.822ZM4.6884 9.70425L3.43303 9.14329H3.43303L4.6884 9.70425ZM6.4127 6.75074L5.34232 5.88767L5.34232 5.88767L6.4127 6.75074ZM10.6939 5.76824L9.64544 6.65783V6.65783L10.6939 5.76824ZM10.923 6.10653L9.70985 6.75371C9.92751 7.16173 10.3357 7.433 10.7962 7.47567C11.2566 7.51833 11.7077 7.32667 11.9966 6.9656L10.923 6.10653ZM12.582 4.40927L11.7026 3.35231L11.7026 3.35231L12.582 4.40927ZM13.1002 4.00271L13.9178 5.10828C14.48 4.69254 14.6406 3.92108 14.2911 3.31546L13.1002 4.00271ZM3.875 4.5C3.875 4.15482 4.15482 3.875 4.5 3.875V1.125C2.63604 1.125 1.125 2.63604 1.125 4.5H3.875ZM3.875 11.5V4.5H1.125V11.5H3.875ZM4.5 12.125C4.15482 12.125 3.875 11.8452 3.875 11.5H1.125C1.125 13.364 2.63604 14.875 4.5 14.875V12.125ZM11.5 12.125H4.5V14.875H11.5V12.125ZM12.125 11.5C12.125 11.8452 11.8452 12.125 11.5 12.125V14.875C13.364 14.875 14.875 13.364 14.875 11.5H12.125ZM12.125 5.8501V11.5H14.875V5.8501H12.125ZM12.5973 4.81295C11.1835 6.04347 10.1927 7.53631 9.33792 9.24726L11.798 10.4763C12.5593 8.95245 13.3547 7.79949 14.4027 6.88726L12.5973 4.81295ZM9.33792 9.24726C9.46846 8.98598 9.78609 8.87999 10.0474 9.01053L8.8183 11.4706C9.91567 12.0188 11.2497 11.5737 11.798 10.4763L9.33792 9.24726ZM10.0474 9.01053C10.3087 9.14107 10.4146 9.4587 10.2841 9.71998L7.82404 8.49091C7.27579 9.58828 7.72093 10.9223 8.8183 11.4706L10.0474 9.01053ZM10.2841 9.71998C10.6531 8.98131 10.9332 8.00554 10.8819 7.17374L8.13708 7.34299C8.1493 7.54115 8.05603 8.02657 7.82404 8.49091L10.2841 9.71998ZM10.8819 7.17374C10.8558 6.75128 10.7407 6.31386 10.4519 5.97353L8.35504 7.75272C8.22941 7.60465 8.17692 7.47353 8.1569 7.41352C8.13388 7.34458 8.13532 7.31454 8.13708 7.34299L10.8819 7.17374ZM10.4996 6.033L10.4991 6.03228L8.30681 7.69253L8.30735 7.69324L10.4996 6.033ZM10.5112 6.04849C10.3761 5.86464 10.1693 5.67641 9.87173 5.55588C9.62291 5.4551 9.37672 5.42877 9.16929 5.42877V8.17877C9.15245 8.17877 9.02037 8.17806 8.83938 8.10475C8.74421 8.06621 8.63663 8.00793 8.52949 7.92182C8.47619 7.87897 8.42721 7.8326 8.38269 7.78373C8.36062 7.7595 8.34132 7.73649 8.32466 7.71552C8.31646 7.70518 8.30947 7.69606 8.3039 7.68866C8.29865 7.6817 8.29447 7.67599 8.29472 7.67632L10.5112 6.04849ZM9.16929 5.42877C8.16332 5.42877 7.31475 6.13754 6.65972 6.94991L8.80049 8.67606C9.03898 8.38029 9.21042 8.23768 9.30096 8.17773C9.39645 8.11452 9.34556 8.17877 9.16929 8.17877V5.42877ZM6.65972 6.94991C5.98785 7.78317 5.41641 8.85282 4.9781 9.83371L7.48884 10.9556C7.88365 10.0721 8.3417 9.24505 8.80049 8.67606L6.65972 6.94991ZM4.9781 9.8337C5.09726 9.56705 5.41003 9.44747 5.67669 9.56663L4.55477 12.0774C5.67475 12.5778 6.98838 12.0756 7.48884 10.9556L4.9781 9.8337ZM5.67669 9.56662C5.94335 9.68578 6.06293 9.99855 5.94377 10.2652L3.43303 9.14329C2.93257 10.2633 3.43479 11.5769 4.55477 12.0774L5.67669 9.56662ZM5.94377 10.2652C6.36532 9.32184 6.89315 8.34547 7.48309 7.61381L5.34232 5.88767C4.53947 6.88337 3.89826 8.10217 3.43303 9.14329L5.94377 10.2652ZM7.48309 7.61381C8.09336 6.85696 8.66852 6.48646 9.16929 6.48646V3.73646C7.35036 3.73646 6.06362 4.9931 5.34232 5.88767L7.48309 7.61381ZM9.16929 6.48646C9.44771 6.48646 9.5738 6.5734 9.64544 6.65783L11.7423 4.87865C11.0616 4.07634 10.1111 3.73646 9.16929 3.73646V6.48646ZM9.64544 6.65783C9.66857 6.68509 9.69002 6.71655 9.70985 6.75371L12.1362 5.45935C12.0304 5.26109 11.9006 5.06518 11.7423 4.87865L9.64544 6.65783ZM11.9966 6.9656C12.431 6.42278 12.9126 5.92299 13.4615 5.46624L11.7026 3.35231C11.0007 3.93633 10.3907 4.57106 9.84942 5.24746L11.9966 6.9656ZM13.4615 5.46624C13.6086 5.34386 13.7605 5.22454 13.9178 5.10828L12.2827 2.89715C12.0832 3.04464 11.89 3.19638 11.7026 3.35231L13.4615 5.46624ZM10.5 3.875C11.1003 3.875 11.6265 4.19986 11.9093 4.68997L14.2911 3.31546C13.5373 2.00917 12.1227 1.125 10.5 1.125V3.875ZM4.5 3.875H10.5V1.125H4.5V3.875Z"
        fill="white"
        mask="url(#path-1-outside-1_1274_57967)"
      />
    </g>
    <path
      fill-rule="evenodd"
      clip-rule="evenodd"
      d="M4.5 2.5C3.39543 2.5 2.5 3.39543 2.5 4.5V11.5C2.5 12.6046 3.39543 13.5 4.5 13.5H11.5C12.6046 13.5 13.5 12.6046 13.5 11.5V5.85011C12.2672 6.92316 11.3745 8.24745 10.568 9.8618C10.3591 10.2798 9.85088 10.4494 9.43284 10.2406C9.01479 10.0317 8.84521 9.52349 9.05407 9.10544C9.35459 8.50394 9.54123 7.77334 9.50947 7.25837C9.49385 7.00508 9.43158 6.89623 9.40349 6.86312L9.40295 6.86241C9.39752 6.85502 9.35989 6.80377 9.16929 6.80377C8.81931 6.80377 8.32605 7.07389 7.73011 7.81299C7.16477 8.51411 6.65003 9.46245 6.23347 10.3947C6.04282 10.8213 5.54239 11.0126 5.11573 10.822C4.68907 10.6313 4.49775 10.1309 4.6884 9.70425C5.13179 8.712 5.71631 7.61442 6.41271 6.75074C7.07849 5.92503 8.00944 5.11146 9.16929 5.11146C9.77942 5.11146 10.3177 5.32487 10.6939 5.76824C10.7846 5.87513 10.8602 5.98882 10.923 6.10653C11.5413 5.33376 12.2525 4.62961 13.1002 4.00271C12.5819 3.10452 11.6115 2.5 10.5 2.5H4.5Z"
      fill="#28CD5A"
    />
  </g>
  <defs>
    <filter
      id="filter0_d_1274_57967"
      x="0.248774"
      y="0.248774"
      width="15.5025"
      height="15.5025"
      filterUnits="userSpaceOnUse"
      color-interpolation-filters="sRGB"
    >
      <feFlood flood-opacity="0" result="BackgroundImageFix" />
      <feColorMatrix
        in="SourceAlpha"
        type="matrix"
        values="0 0 0 0 0 0 0 0 0 0 0 0 0 0 0 0 0 0 127 0"
        result="hardAlpha"
      />
      <feOffset />
      <feGaussianBlur stdDeviation="0.438113" />
      <feComposite in2="hardAlpha" operator="out" />
      <feColorMatrix type="matrix" values="0 0 0 0 0 0 0 0 0 0 0 0 0 0 0 0 0 0 0.4 0" />
      <feBlend mode="normal" in2="BackgroundImageFix" result="effect1_dropShadow_1274_57967" />
      <feBlend mode="normal" in="SourceGraphic" in2="effect1_dropShadow_1274_57967" result="shape" />
    </filter>
    <clipPath id="clip0_1274_57967">
      <rect width="16" height="16" fill="white" />
    </clipPath>
  </defs>
</svg>
