<svg viewBox="0 0 16 16" fill="none" xmlns="http://www.w3.org/2000/svg">
  <g clip-path="url(#clip0_615_35908)">
    <g filter="url(#filter0_d_615_35908)">
      <path
        d="M4.80879 5.40306C5.14474 5.40306 5.41709 5.1298 5.41709 4.79272C5.41709 4.45563 5.14474 4.18238 4.80879 4.18238C4.47284 4.18238 4.20049 4.45563 4.20049 4.79272C4.20049 5.1298 4.47284 5.40306 4.80879 5.40306Z"
        fill="#28C840"
      />
      <path
        d="M8.29974 4.79067C8.29974 5.12663 8.0283 5.39897 7.69347 5.39897C7.35864 5.39897 7.08721 5.12663 7.08721 4.79067C7.08721 4.45472 7.35864 4.18238 7.69347 4.18238C8.0283 4.18238 8.29974 4.45472 8.29974 4.79067Z"
        fill="#28C840"
      />
      <path
        d="M12.7903 8.5689C12.7903 8.88485 12.535 9.14097 12.22 9.14097C11.905 9.14097 11.6497 8.88485 11.6497 8.5689C11.6497 8.25295 11.905 7.99683 12.22 7.99683C12.535 7.99683 12.7903 8.25295 12.7903 8.5689Z"
        fill="#28C840"
      />
      <path
        d="M9.78641 9.14097C10.1014 9.14097 10.3567 8.88485 10.3567 8.5689C10.3567 8.25295 10.1014 7.99683 9.78641 7.99683C9.47144 7.99683 9.21611 8.25295 9.21611 8.5689C9.21611 8.88485 9.47144 9.14097 9.78641 9.14097Z"
        fill="#28C840"
      />
      <path
        fill-rule="evenodd"
        clip-rule="evenodd"
        d="M6.62228 10.8755C6.49936 10.8823 6.3754 10.8857 6.25055 10.8857C5.67874 10.8857 5.12572 10.8139 4.60457 10.6799L3.13821 11.5627C2.94455 11.6793 2.7018 11.6771 2.51023 11.5571C2.31867 11.4371 2.2108 11.2196 2.2312 10.9945L2.36075 9.56466C1.36104 8.7469 0.708008 7.59152 0.708008 6.28026C0.708008 3.62505 3.31348 1.6748 6.25055 1.6748C9.05551 1.6748 11.558 3.45357 11.7775 5.92638C13.8646 6.22646 15.5977 7.72231 15.5977 9.71372C15.5977 10.7592 15.104 11.6832 14.344 12.3558L14.4549 13.469C14.4766 13.6866 14.3782 13.8988 14.198 14.0228C14.0178 14.1468 13.7844 14.1629 13.5889 14.0648L12.2783 13.4073C11.8732 13.5045 11.446 13.5562 11.0056 13.5562C9.0357 13.5562 7.22231 12.4838 6.62228 10.8755ZM1.90801 6.28026C1.90801 4.51116 3.72824 2.8748 6.25055 2.8748C8.58569 2.8748 10.3191 4.27733 10.5635 5.88925C8.34321 6.07068 6.43215 7.60336 6.41371 9.68334C6.35958 9.68491 6.30519 9.68571 6.25055 9.68571C5.69918 9.68571 5.17373 9.60475 4.69116 9.45825C4.52867 9.40892 4.35289 9.43075 4.2074 9.51833L3.53308 9.92428L3.58571 9.34341C3.60496 9.13103 3.51003 8.9244 3.33637 8.80064C2.43179 8.15602 1.90801 7.24853 1.90801 6.28026ZM7.61357 9.71372C7.61357 8.36487 9.00962 7.07121 11.0056 7.07121C13.0016 7.07121 14.3977 8.36487 14.3977 9.71372C14.3977 10.4323 14.0221 11.1142 13.3547 11.6153C13.187 11.7413 13.0972 11.9458 13.118 12.1546L13.1528 12.5035L12.6137 12.233C12.4787 12.1653 12.3231 12.151 12.178 12.1929C11.8139 12.2982 11.4193 12.3562 11.0056 12.3562C9.00962 12.3562 7.61357 11.0626 7.61357 9.71372Z"
        fill="#28C840"
      />
      <path
        fill-rule="evenodd"
        clip-rule="evenodd"
        d="M6.25055 2.8748C3.72824 2.8748 1.90801 4.51116 1.90801 6.28026C1.90801 7.24853 2.43179 8.15602 3.33637 8.80064C3.51003 8.9244 3.60496 9.13103 3.58571 9.34341L3.53308 9.92428L4.2074 9.51833C4.35289 9.43075 4.52867 9.40892 4.69116 9.45825C5.17373 9.60475 5.69918 9.68571 6.25055 9.68571C6.30519 9.68571 6.35958 9.68491 6.41371 9.68334C6.43215 7.60336 8.34321 6.07068 10.5635 5.88925C10.3191 4.27733 8.58569 2.8748 6.25055 2.8748ZM4.80879 5.40306C5.14474 5.40306 5.41709 5.1298 5.41709 4.79272C5.41709 4.45563 5.14474 4.18238 4.80879 4.18238C4.47284 4.18238 4.20049 4.45563 4.20049 4.79272C4.20049 5.1298 4.47284 5.40306 4.80879 5.40306ZM8.29974 4.79067C8.29974 5.12663 8.0283 5.39897 7.69347 5.39897C7.35864 5.39897 7.08721 5.12663 7.08721 4.79067C7.08721 4.45472 7.35864 4.18238 7.69347 4.18238C8.0283 4.18238 8.29974 4.45472 8.29974 4.79067Z"
        fill="#28C840"
      />
      <path
        fill-rule="evenodd"
        clip-rule="evenodd"
        d="M11.0056 7.07121C9.00962 7.07121 7.61357 8.36487 7.61357 9.71372C7.61357 11.0626 9.00962 12.3562 11.0056 12.3562C11.4193 12.3562 11.8139 12.2982 12.178 12.1929C12.3231 12.151 12.4787 12.1653 12.6137 12.233L13.1528 12.5035L13.118 12.1546C13.0972 11.9458 13.187 11.7413 13.3547 11.6153C14.0221 11.1142 14.3977 10.4323 14.3977 9.71372C14.3977 8.36487 13.0016 7.07121 11.0056 7.07121ZM12.7903 8.5689C12.7903 8.88485 12.535 9.14097 12.22 9.14097C11.905 9.14097 11.6497 8.88485 11.6497 8.5689C11.6497 8.25295 11.905 7.99683 12.22 7.99683C12.535 7.99683 12.7903 8.25295 12.7903 8.5689ZM9.78641 9.14097C10.1014 9.14097 10.3567 8.88485 10.3567 8.5689C10.3567 8.25295 10.1014 7.99683 9.78641 7.99683C9.47144 7.99683 9.21611 8.25295 9.21611 8.5689C9.21611 8.88485 9.47144 9.14097 9.78641 9.14097Z"
        fill="#28C840"
      />
    </g>
    <path
      fill-rule="evenodd"
      clip-rule="evenodd"
      d="M1.90898 6.28026C1.90898 4.51116 3.72921 2.8748 6.25152 2.8748C8.58667 2.8748 10.3201 4.27733 10.5645 5.88925C8.34419 6.07068 6.43313 7.60336 6.41468 9.68334C6.36056 9.68491 6.30617 9.68571 6.25152 9.68571C5.70015 9.68571 5.1747 9.60475 4.69214 9.45825C4.52965 9.40892 4.35387 9.43075 4.20838 9.51833L3.53406 9.92429L3.58669 9.34341C3.60593 9.13103 3.51101 8.9244 3.33734 8.80064C2.43276 8.15602 1.90898 7.24853 1.90898 6.28026ZM6.62325 10.8755C6.50033 10.8823 6.37638 10.8857 6.25152 10.8857C5.67971 10.8857 5.1267 10.8139 4.60555 10.6799L3.13919 11.5627C2.94553 11.6793 2.70277 11.6771 2.51121 11.5571C2.31964 11.4371 2.21178 11.2196 2.23218 10.9945L2.36173 9.56466C1.36202 8.7469 0.708984 7.59152 0.708984 6.28026C0.708984 3.62505 3.31446 1.6748 6.25152 1.6748C9.05649 1.6748 11.559 3.45357 11.7785 5.92638C13.8656 6.22646 15.5986 7.72231 15.5986 9.71372C15.5986 10.7592 15.1049 11.6832 14.345 12.3558L14.4559 13.469C14.4776 13.6866 14.3791 13.8988 14.1989 14.0228C14.0187 14.1468 13.7853 14.1629 13.5898 14.0648L12.2793 13.4073C11.8742 13.5045 11.447 13.5562 11.0066 13.5562C9.03667 13.5562 7.22328 12.4838 6.62325 10.8755ZM4.80977 5.40306C5.14572 5.40306 5.41806 5.1298 5.41806 4.79272C5.41806 4.45563 5.14572 4.18238 4.80977 4.18238C4.47381 4.18238 4.20147 4.45563 4.20147 4.79272C4.20147 5.1298 4.47381 5.40306 4.80977 5.40306ZM8.30071 4.79067C8.30071 5.12663 8.02928 5.39897 7.69445 5.39897C7.35962 5.39897 7.08819 5.12663 7.08819 4.79067C7.08819 4.45472 7.35962 4.18238 7.69445 4.18238C8.02928 4.18238 8.30071 4.45472 8.30071 4.79067ZM7.61454 9.71372C7.61454 8.36487 9.0106 7.07121 11.0066 7.07121C13.0026 7.07121 14.3986 8.36487 14.3986 9.71372C14.3986 10.4323 14.023 11.1142 13.3557 11.6153C13.1879 11.7413 13.0982 11.9458 13.119 12.1546L13.1537 12.5035L12.6147 12.233C12.4797 12.1653 12.3241 12.151 12.179 12.1929C11.8149 12.2982 11.4203 12.3562 11.0066 12.3562C9.0106 12.3562 7.61454 11.0626 7.61454 9.71372ZM12.7913 8.5689C12.7913 8.88485 12.5359 9.14097 12.221 9.14097C11.906 9.14097 11.6507 8.88485 11.6507 8.5689C11.6507 8.25295 11.906 7.99683 12.221 7.99683C12.5359 7.99683 12.7913 8.25295 12.7913 8.5689ZM9.78738 9.14097C10.1023 9.14097 10.3577 8.88485 10.3577 8.5689C10.3577 8.25295 10.1023 7.99683 9.78738 7.99683C9.47242 7.99683 9.21709 8.25295 9.21709 8.5689C9.21709 8.88485 9.47242 9.14097 9.78738 9.14097Z"
      fill="white"
    />
  </g>
  <defs>
    <filter
      id="filter0_d_615_35908"
      x="-0.291992"
      y="0.674805"
      width="16.8896"
      height="14.4541"
      filterUnits="userSpaceOnUse"
      color-interpolation-filters="sRGB"
    >
      <feFlood flood-opacity="0" result="BackgroundImageFix" />
      <feColorMatrix
        in="SourceAlpha"
        type="matrix"
        values="0 0 0 0 0 0 0 0 0 0 0 0 0 0 0 0 0 0 127 0"
        result="hardAlpha"
      />
      <feOffset />
      <feGaussianBlur stdDeviation="0.5" />
      <feComposite in2="hardAlpha" operator="out" />
      <feColorMatrix type="matrix" values="0 0 0 0 0 0 0 0 0 0 0 0 0 0 0 0 0 0 0.4 0" />
      <feBlend mode="normal" in2="BackgroundImageFix" result="effect1_dropShadow_615_35908" />
      <feBlend mode="normal" in="SourceGraphic" in2="effect1_dropShadow_615_35908" result="shape" />
    </filter>
    <clipPath id="clip0_615_35908">
      <rect width="16" height="16" fill="white" />
    </clipPath>
  </defs>
</svg>
