<svg viewBox="0 0 16 16" fill="none" xmlns="http://www.w3.org/2000/svg">
  <g filter="url(#filter0_d_615_35907)">
    <mask
      id="path-1-outside-1_615_35907"
      maskUnits="userSpaceOnUse"
      x="0.893555"
      y="0.892578"
      width="14"
      height="14"
      fill="black"
    >
      <rect fill="white" x="0.893555" y="0.892578" width="14" height="14" />
      <path
        fill-rule="evenodd"
        clip-rule="evenodd"
        d="M9.67098 10.2283C11.2505 9.25741 12.3938 7.98979 12.9747 6.89801C13.368 8.87966 12.5214 10.9844 10.6995 12.1044C8.8406 13.247 6.52555 13.0208 4.93093 11.7066C6.21239 11.7187 7.99545 11.2582 9.67098 10.2283ZM11.5476 4.28534C12.2897 4.16449 12.8222 4.24853 13.0204 4.57112C13.5238 5.38998 11.8078 7.53035 9.03419 9.23523C6.26062 10.9401 3.47982 11.5639 2.97647 10.745C2.78407 10.432 2.9341 9.93977 3.34779 9.35579C2.68023 7.23264 3.50787 4.84831 5.4902 3.62979C7.46468 2.4161 9.95386 2.74678 11.5476 4.28534Z"
      />
    </mask>
    <path
      fill-rule="evenodd"
      clip-rule="evenodd"
      d="M9.67098 10.2283C11.2505 9.25741 12.3938 7.98979 12.9747 6.89801C13.368 8.87966 12.5214 10.9844 10.6995 12.1044C8.8406 13.247 6.52555 13.0208 4.93093 11.7066C6.21239 11.7187 7.99545 11.2582 9.67098 10.2283ZM11.5476 4.28534C12.2897 4.16449 12.8222 4.24853 13.0204 4.57112C13.5238 5.38998 11.8078 7.53035 9.03419 9.23523C6.26062 10.9401 3.47982 11.5639 2.97647 10.745C2.78407 10.432 2.9341 9.93977 3.34779 9.35579C2.68023 7.23264 3.50787 4.84831 5.4902 3.62979C7.46468 2.4161 9.95386 2.74678 11.5476 4.28534Z"
      fill="#205AEF"
    />
    <path
      d="M12.9747 6.89801L14.0677 6.68109L13.4592 3.61509L11.991 6.37462L12.9747 6.89801ZM9.67098 10.2283L9.08746 9.27903L9.67098 10.2283ZM10.6995 12.1044L10.1159 11.1551V11.1551L10.6995 12.1044ZM4.93093 11.7066L4.94141 10.5924L1.79096 10.5628L4.22225 12.5665L4.93093 11.7066ZM11.5476 4.28534L10.7737 5.08703L11.1755 5.47491L11.7267 5.38514L11.5476 4.28534ZM13.0204 4.57112L12.0712 5.15463L13.0204 4.57112ZM9.03419 9.23523L8.45068 8.28595L9.03419 9.23523ZM2.97647 10.745L2.02718 11.3286L2.02718 11.3286L2.97647 10.745ZM3.34779 9.35579L4.25705 9.9999L4.57656 9.54886L4.41077 9.02156L3.34779 9.35579ZM5.4902 3.62979L4.90669 2.6805V2.6805L5.4902 3.62979ZM11.991 6.37462C11.5134 7.27228 10.5175 8.40003 9.08746 9.27903L10.2545 11.1776C11.9835 10.1148 13.2743 8.70729 13.9584 7.42139L11.991 6.37462ZM11.283 13.0537C13.5146 11.6819 14.5487 9.10492 14.0677 6.68109L11.8817 7.11492C12.1873 8.6544 11.5282 10.287 10.1159 11.1551L11.283 13.0537ZM4.22225 12.5665C6.17299 14.1742 9.0062 14.4532 11.283 13.0537L10.1159 11.1551C8.675 12.0408 6.8781 11.8674 5.63961 10.8467L4.22225 12.5665ZM9.08746 9.27903C7.566 10.2143 5.98631 10.6022 4.94141 10.5924L4.92045 12.8209C6.43847 12.8351 8.4249 12.3022 10.2545 11.1776L9.08746 9.27903ZM11.7267 5.38514C11.8725 5.3614 11.994 5.35009 12.0918 5.34756C12.191 5.34499 12.2535 5.35178 12.2859 5.35775C12.3647 5.37228 12.1989 5.36249 12.0712 5.15463L13.9697 3.9876C13.6437 3.45716 13.1126 3.24406 12.6901 3.16613C12.2652 3.08779 11.8062 3.11428 11.3685 3.18555L11.7267 5.38514ZM12.0712 5.15463C11.9232 4.91384 12.0489 4.7772 11.9617 5.00105C11.8889 5.18804 11.7165 5.4801 11.4021 5.85521C10.7817 6.59552 9.75791 7.4824 8.45068 8.28595L9.61771 10.1845C11.084 9.28318 12.305 8.24744 13.1102 7.28663C13.5086 6.81118 13.8442 6.30805 14.0382 5.81014C14.2179 5.34909 14.3694 4.63783 13.9697 3.9876L12.0712 5.15463ZM8.45068 8.28595C7.14348 9.08947 5.86279 9.61915 4.89252 9.85337C4.40082 9.97207 4.04675 10.0006 3.8343 9.98362C3.57268 9.96266 3.76728 9.90372 3.92575 10.1615L2.02718 11.3286C2.43733 11.9958 3.16829 12.166 3.65631 12.2051C4.1935 12.2481 4.80236 12.1677 5.41547 12.0197C6.65483 11.7205 8.15134 11.0859 9.61771 10.1845L8.45068 8.28595ZM3.92575 10.1615C4.04957 10.363 3.99103 10.5132 4.00867 10.4496C4.01599 10.4232 4.03475 10.3702 4.07684 10.2892C4.11835 10.2094 4.17716 10.1127 4.25705 9.9999L2.43853 8.71167C2.19196 9.05975 1.97364 9.44805 1.86102 9.85449C1.74832 10.2612 1.71096 10.8141 2.02718 11.3286L3.92575 10.1615ZM4.41077 9.02156C3.89271 7.37391 4.53677 5.52382 6.07372 4.57907L4.90669 2.6805C2.47897 4.1728 1.46774 7.09138 2.28481 9.69001L4.41077 9.02156ZM6.07372 4.57907C7.60455 3.63809 9.53683 3.89298 10.7737 5.08703L12.3215 3.48366C10.3709 1.60059 7.32481 1.19411 4.90669 2.6805L6.07372 4.57907Z"
      fill="white"
      mask="url(#path-1-outside-1_615_35907)"
    />
  </g>
  <defs>
    <filter
      id="filter0_d_615_35907"
      x="0.850725"
      y="0.849749"
      width="14.3005"
      height="14.0349"
      filterUnits="userSpaceOnUse"
      color-interpolation-filters="sRGB"
    >
      <feFlood flood-opacity="0" result="BackgroundImageFix" />
      <feColorMatrix
        in="SourceAlpha"
        type="matrix"
        values="0 0 0 0 0 0 0 0 0 0 0 0 0 0 0 0 0 0 127 0"
        result="hardAlpha"
      />
      <feOffset />
      <feGaussianBlur stdDeviation="0.464286" />
      <feComposite in2="hardAlpha" operator="out" />
      <feColorMatrix type="matrix" values="0 0 0 0 0 0 0 0 0 0 0 0 0 0 0 0 0 0 0.4 0" />
      <feBlend mode="normal" in2="BackgroundImageFix" result="effect1_dropShadow_615_35907" />
      <feBlend mode="normal" in="SourceGraphic" in2="effect1_dropShadow_615_35907" result="shape" />
    </filter>
  </defs>
</svg>
