<svg viewBox="0 0 16 16" fill="none" xmlns="http://www.w3.org/2000/svg">
<g clip-path="url(#clip0_3587_20682)">
<g filter="url(#filter0_d_3587_20682)">
<path fill-rule="evenodd" clip-rule="evenodd" d="M7.82799 0.989693L8.04967 1.01899C9.1614 1.18745 10.2516 1.69378 10.8202 2.17915L10.9149 2.26801C11.2947 2.66448 11.2994 3.19245 11.1415 3.57563L11.0575 3.74165C10.8628 4.06035 10.7155 4.55615 10.6532 5.13325C10.6135 5.50116 10.6161 5.85854 10.6424 6.16352C10.9797 6.25446 11.374 6.31824 11.7782 6.34712C12.3776 6.38988 12.8749 6.35037 13.1161 6.29047L13.2958 6.2602C13.6991 6.22279 14.1822 6.3736 14.4608 6.81879L14.5214 6.92622L14.6063 7.10883C14.7945 7.54294 14.9157 8.03408 14.9823 8.47993C15.0477 8.91833 15.0732 9.40047 15.0204 9.81879L14.993 9.9936C14.8897 10.534 14.4538 10.8839 13.9921 10.9565C12.8544 11.1353 11.254 11.0681 9.69225 10.2026C10.0387 11.678 9.83343 13.0639 9.53698 13.9633L9.43444 14.2495C9.24268 14.7326 8.77223 15.0296 8.27135 15.0161L8.17076 15.0092C7.05905 14.8872 5.9353 14.4047 5.29967 13.9184L5.17955 13.8207C4.64079 13.3607 4.68879 12.6645 4.95006 12.2485L5.02819 12.1127C5.20722 11.7806 5.34824 11.3452 5.42565 10.8754C5.48053 10.5422 5.49793 10.2257 5.48619 9.95454C5.12302 9.84864 4.69224 9.76582 4.25475 9.71723C3.76855 9.66327 3.35591 9.66047 3.08385 9.68403L2.86119 9.71528C2.44799 9.80836 1.85917 9.69387 1.53795 9.18012L1.47741 9.07172C1.24022 8.59663 1.09323 8.02823 1.01744 7.51899C0.94294 7.01819 0.919899 6.46076 1.0067 6.00629L1.03014 5.90766C1.16458 5.42355 1.57464 5.11162 2.00768 5.0434L2.31041 5.00239C3.41912 4.88109 4.87843 5.00505 6.30553 5.79536C5.92037 4.15364 6.21808 2.62221 6.56432 1.74946L6.60631 1.65571C6.81877 1.22831 7.25985 0.970348 7.72741 0.982857L7.82799 0.989693ZM8.09459 13.9614L8.28307 13.9868C8.21686 13.9795 8.15082 13.9697 8.08483 13.9594C8.0881 13.9599 8.09131 13.9609 8.09459 13.9614ZM8.70397 13.1098C8.63999 13.4016 8.56199 13.6588 8.47838 13.8696L8.56627 13.6284C8.61754 13.4722 8.66271 13.298 8.70397 13.1098ZM6.02233 13.1713C6.02425 13.1727 6.02625 13.1739 6.02819 13.1752C5.96045 13.1286 5.89969 13.0831 5.84752 13.0385L6.02233 13.1713ZM5.82018 12.7954C5.80787 12.815 5.79912 12.8362 5.79381 12.8579L5.82018 12.7954C5.85869 12.7341 5.89615 12.6703 5.93151 12.6049L5.82018 12.7954ZM6.39635 11.2788C6.33151 11.5929 6.24103 11.9028 6.12487 12.1909L6.20787 11.9711C6.31118 11.6735 6.38839 11.3583 6.4403 11.0434L6.39635 11.2788ZM8.38659 9.51899C8.44808 9.66201 8.50286 9.80496 8.55065 9.9477L8.47448 9.73286C8.44715 9.66117 8.41743 9.59069 8.38659 9.51899ZM13.8329 9.94086L13.8739 9.93012C13.8771 9.92884 13.8795 9.92572 13.8827 9.92426C13.8669 9.93155 13.8506 9.93808 13.8329 9.94086ZM6.43834 9.29438C6.47804 9.47755 6.50355 9.68052 6.51354 9.89594L6.49889 9.68501C6.48565 9.54746 6.4648 9.41649 6.43834 9.29438ZM2.51354 8.70747L2.56432 8.71723C2.54468 8.71584 2.52591 8.71075 2.50768 8.70454C2.50973 8.70523 2.51146 8.70683 2.51354 8.70747ZM13.3651 7.28852C13.4114 7.27705 13.4598 7.27996 13.5018 7.29633L13.4354 7.28169C13.4123 7.28028 13.3883 7.28279 13.3651 7.28852ZM10.244 7.12153C10.3004 7.13834 10.3579 7.15325 10.4159 7.1684C10.2797 7.13283 10.1473 7.09313 10.0214 7.04829L10.244 7.12153ZM9.7401 6.9145C9.74378 6.91892 9.74872 6.92215 9.7528 6.92622C9.73846 6.91186 9.72572 6.89576 9.71666 6.87739L9.7401 6.9145ZM2.42369 6.02485C2.33548 6.03453 2.24961 6.04601 2.16686 6.05903C2.33254 6.03298 2.51064 6.0129 2.69713 6.00141L2.42369 6.02485ZM7.28112 2.94672C7.14946 3.57819 7.09407 4.36517 7.23619 5.20161L7.18053 4.78754C7.11414 4.10648 7.17128 3.47299 7.28112 2.94672ZM9.97643 3.60493C9.97358 3.61165 9.97143 3.61868 9.96862 3.62544C9.97334 3.61408 9.97747 3.60251 9.98229 3.59126L9.97643 3.60493ZM7.52037 2.12934C7.49072 2.20411 7.46165 2.28471 7.43346 2.37055L7.52037 2.12934C7.52813 2.1098 7.53955 2.09187 7.5526 2.07661L7.52037 2.12934ZM7.71569 2.01215C8.09296 2.05351 8.46936 2.14584 8.8153 2.26411C8.52702 2.16546 8.21767 2.08455 7.90416 2.03657L7.71569 2.01215ZM7.71569 2.01215C7.67381 2.00762 7.63283 2.01702 7.5985 2.03754L7.65416 2.01606C7.67394 2.0117 7.69465 2.00985 7.71569 2.01215Z" fill="white"/>
</g>
<path d="M2.04614 6.0791C3.36537 5.84033 5.50057 5.97553 7.26879 7.83691C9.39063 10.0706 8.92304 12.8764 8.42407 14C7.26869 13.9128 6.08732 13.322 5.73266 12.9277C6.43855 11.9267 6.67518 10.2156 6.41723 9.20215C5.25635 8.66783 3.16787 8.50631 2.4768 8.75781C2.04587 8.03919 1.87305 6.66355 2.04614 6.0791Z" fill="#FF6810"/>
<path d="M7.57544 2C8.73089 2.08711 9.91314 2.67704 10.2678 3.07129C9.56186 4.07227 9.46591 5.91526 9.72387 6.92871C10.8845 7.46297 12.8312 7.49353 13.5227 7.24219C13.9535 7.96063 14.1272 9.33523 13.9543 9.91992C12.6352 10.1587 10.4999 10.0242 8.73169 8.16309C6.60991 5.92952 7.0765 3.12379 7.57544 2Z" fill="#FF6810"/>
</g>
<defs>
<filter id="filter0_d_3587_20682" x="0.0107371" y="0.0422313" width="15.9783" height="15.9146" filterUnits="userSpaceOnUse" color-interpolation-filters="sRGB">
<feFlood flood-opacity="0" result="BackgroundImageFix"/>
<feColorMatrix in="SourceAlpha" type="matrix" values="0 0 0 0 0 0 0 0 0 0 0 0 0 0 0 0 0 0 127 0" result="hardAlpha"/>
<feOffset/>
<feGaussianBlur stdDeviation="0.470095"/>
<feComposite in2="hardAlpha" operator="out"/>
<feColorMatrix type="matrix" values="0 0 0 0 0 0 0 0 0 0 0 0 0 0 0 0 0 0 0.4 0"/>
<feBlend mode="normal" in2="BackgroundImageFix" result="effect1_dropShadow_3587_20682"/>
<feBlend mode="normal" in="SourceGraphic" in2="effect1_dropShadow_3587_20682" result="shape"/>
</filter>
<clipPath id="clip0_3587_20682">
<rect width="16" height="16" fill="white"/>
</clipPath>
</defs>
</svg>
