<svg viewBox="0 0 32 32" fill="none" xmlns="http://www.w3.org/2000/svg">
  <g filter="url(#filter0_d_5915_237999)">
    <path d="M6 4H22L26 8V28H6V4Z" stroke="white" stroke-width="4.75" stroke-linejoin="round"
      shape-rendering="crispEdges" />
  </g>
  <g clip-path="url(#clip0_5915_237999)">
    <path d="M6 4H22L26 8V28H6V4Z" fill="white" />
    <path fill-rule="evenodd" clip-rule="evenodd"
      d="M4.8125 4C4.8125 3.34416 5.34416 2.8125 6 2.8125H22C22.3149 2.8125 22.617 2.93761 22.8397 3.16031L26.8397 7.16031C27.0624 7.38301 27.1875 7.68506 27.1875 8V28C27.1875 28.6558 26.6558 29.1875 26 29.1875H6C5.34416 29.1875 4.8125 28.6558 4.8125 28V4ZM7.1875 5.1875V26.8125H24.8125V8.49188L21.5081 5.1875H7.1875Z"
      fill="white" />
    <g filter="url(#filter1_f_5915_237999)">
      <circle cx="12.5126" cy="24.9813" r="5.78306" fill="#4DEE9E" />
    </g>
    <g filter="url(#filter2_f_5915_237999)">
      <circle cx="9.0621" cy="14.9976" r="6.99764" fill="#F6F7FA" />
    </g>
    <g filter="url(#filter3_f_5915_237999)">
      <circle cx="21.7826" cy="29.8178" r="6.45936" fill="#D6E807" />
    </g>
  </g>
  <g clip-path="url(#clip1_5915_237999)">
    <path
      d="M21.1422 13.0471C21.632 12.6317 21.5349 11.7029 20.928 10.9705C20.321 10.238 19.4315 9.98297 18.9442 10.3985C18.4569 10.8141 18.5515 11.7426 19.1584 12.4751C19.7653 13.2075 20.6522 13.4635 21.1422 13.0471Z"
      fill="black" />
    <path
      d="M10.8865 13.0471C10.3969 12.6317 10.4938 11.7029 11.101 10.9705C11.7082 10.238 12.597 9.98297 13.0846 10.3985C13.5721 10.8141 13.4773 11.7426 12.87 12.4751C12.2628 13.2075 11.3763 13.4635 10.8865 13.0471Z"
      fill="black" />
    <path
      d="M12.489 17.213C11.9995 16.7974 12.0964 15.8684 12.7034 15.1361C13.3104 14.4038 14.199 14.1478 14.6863 14.5632C15.1737 14.9786 15.0789 15.9075 14.4721 16.64C13.8653 17.3726 12.9786 17.6283 12.489 17.213Z"
      fill="black" />
    <path
      d="M17.5567 16.64C16.9499 15.9073 16.8531 14.9783 17.3425 14.5632C17.8319 14.1481 18.7195 14.4034 19.3254 15.1361C19.9313 15.8689 20.0293 16.7976 19.5399 17.213C19.0505 17.6283 18.1615 17.3703 17.5567 16.64Z"
      fill="black" />
    <path
      d="M16.0136 17.4374C16.438 17.4374 16.7811 17.2247 16.7811 16.9633C16.7811 16.7019 16.438 16.4893 16.0136 16.4893C15.5892 16.4893 15.2461 16.7019 15.2461 16.9633C15.2461 17.2247 15.5892 17.4374 16.0136 17.4374Z"
      fill="black" />
  </g>
  <path d="M22 7V2L28 8H23C22.4477 8 22 7.55228 22 7Z" fill="white" />
  <defs>
    <filter id="filter0_d_5915_237999" x="2.625" y="0.625" width="26.75" height="30.75" filterUnits="userSpaceOnUse"
      color-interpolation-filters="sRGB">
      <feFlood flood-opacity="0" result="BackgroundImageFix" />
      <feColorMatrix in="SourceAlpha" type="matrix" values="0 0 0 0 0 0 0 0 0 0 0 0 0 0 0 0 0 0 127 0"
        result="hardAlpha" />
      <feOffset />
      <feGaussianBlur stdDeviation="0.5" />
      <feComposite in2="hardAlpha" operator="out" />
      <feColorMatrix type="matrix" values="0 0 0 0 0 0 0 0 0 0 0 0 0 0 0 0 0 0 0.4 0" />
      <feBlend mode="normal" in2="BackgroundImageFix" result="effect1_dropShadow_5915_237999" />
      <feBlend mode="normal" in="SourceGraphic" in2="effect1_dropShadow_5915_237999" result="shape" />
    </filter>
    <filter id="filter1_f_5915_237999" x="-1.27051" y="11.1982" width="27.5664" height="27.5664"
      filterUnits="userSpaceOnUse" color-interpolation-filters="sRGB">
      <feFlood flood-opacity="0" result="BackgroundImageFix" />
      <feBlend mode="normal" in="SourceGraphic" in2="BackgroundImageFix" result="shape" />
      <feGaussianBlur stdDeviation="4" result="effect1_foregroundBlur_5915_237999" />
    </filter>
    <filter id="filter2_f_5915_237999" x="-5.93555" y="0" width="29.9951" height="29.9951" filterUnits="userSpaceOnUse"
      color-interpolation-filters="sRGB">
      <feFlood flood-opacity="0" result="BackgroundImageFix" />
      <feBlend mode="normal" in="SourceGraphic" in2="BackgroundImageFix" result="shape" />
      <feGaussianBlur stdDeviation="4" result="effect1_foregroundBlur_5915_237999" />
    </filter>
    <filter id="filter3_f_5915_237999" x="5.32324" y="13.3584" width="32.9189" height="32.9189"
      filterUnits="userSpaceOnUse" color-interpolation-filters="sRGB">
      <feFlood flood-opacity="0" result="BackgroundImageFix" />
      <feBlend mode="normal" in="SourceGraphic" in2="BackgroundImageFix" result="shape" />
      <feGaussianBlur stdDeviation="5" result="effect1_foregroundBlur_5915_237999" />
    </filter>
    <clipPath id="clip0_5915_237999">
      <rect x="4.8125" y="2.8125" width="22.375" height="26.375" rx="1.5" fill="white" />
    </clipPath>
    <clipPath id="clip1_5915_237999">
      <rect width="12" height="12" fill="white" transform="translate(10 10)" />
    </clipPath>
  </defs>
</svg>