<svg viewBox="0 0 128 76" fill="none" xmlns="http://www.w3.org/2000/svg">
<g clip-path="url(#clip0_5_36)">
  <path
    d="M33.8979 47.6044H25.8619C22.7235 47.6008 19.7147 46.353 17.4955 44.1347C15.2763 41.9164 14.0279 38.9088 14.0243 35.7717V21.8485C14.0243 20.9467 13.6659 20.0819 13.028 19.4442C12.3901 18.8065 11.5249 18.4483 10.6227 18.4483H0.000152588V10.0158H10.6227C13.7611 10.0194 16.77 11.2672 18.9892 13.4855C21.2084 15.7038 22.4567 18.7114 22.4603 21.8485V35.7717C22.4603 36.6735 22.8187 37.5383 23.4566 38.176C24.0946 38.8136 24.9598 39.1719 25.8619 39.1719H33.8979V47.6044Z"
    fill="currentColor" />
  <path
    d="M80.7855 47.6006H72.3495V23.7992C72.3495 22.7519 72.0488 21.215 71.2025 20.0549C70.4065 18.9668 69.2976 18.4527 67.7138 18.4527C66.13 18.4527 65.0402 18.9723 64.236 20.0848C63.3815 21.2681 63.0781 22.824 63.0781 23.7978V47.6006H54.6421V23.7992C54.6421 22.9151 54.2257 21.4123 53.3114 20.2045C51.9888 18.4527 50.4962 18.4527 50.0064 18.4527C48.6076 18.4527 47.515 18.9845 46.6619 20.0848C45.8483 21.155 45.3948 22.4553 45.3666 23.7992V47.6006H36.9306V23.7992C36.9535 20.5729 38.0331 17.4428 40.0043 14.8879C42.4534 11.7434 46.0061 10.012 50.005 10.012C51.6222 9.99811 53.2259 10.3079 54.7215 10.9232C56.217 11.5384 57.5743 12.4467 58.7132 13.5945C61.0412 11.2701 64.1707 10.012 67.7166 10.012C71.9849 10.012 75.6478 11.8142 78.0289 15.0865C79.7841 17.4993 80.791 20.6724 80.791 23.791L80.7855 47.6006Z"
    fill="currentColor" />
  <path d="M33.5179 0H21V12.5128H33.5179V0Z" fill="currentColor" />
  <path
    d="M100.937 47.9998H95.3227C92.1834 47.9663 89.1841 46.6962 86.976 44.4653C84.768 42.2345 83.5295 39.223 83.5295 36.0848C83.5295 32.9466 84.768 29.9352 86.976 27.7043C89.1841 25.4734 92.1834 24.2034 95.3227 24.1698H100.937C102.406 24.1685 103.862 24.4401 105.232 24.9709V24.0257C105.232 22.9526 105.232 22.1039 105.185 21.821C105.066 21.1266 104.735 20.4861 104.236 19.9881C103.738 19.4901 103.097 19.1591 102.402 19.041C102.119 18.992 101.271 18.992 100.198 18.992H86.5372V10.5595H100.198C101.896 10.5595 102.832 10.5595 103.817 10.7268C106.235 11.1393 108.464 12.2914 110.199 14.0242C111.934 15.7569 113.088 17.985 113.502 20.401C113.671 21.3871 113.671 22.3215 113.671 24.0202V34.1229C113.671 35.4606 114.202 36.7436 115.148 37.6899C116.094 38.6363 117.377 39.1687 118.715 39.1702H128V47.6027H118.715C115.387 47.6054 112.177 46.3728 109.706 44.144C108.592 45.3596 107.237 46.3302 105.727 46.994C104.217 47.6578 102.586 48.0004 100.937 47.9998ZM95.3227 32.6051C94.4114 32.6231 93.5434 32.9976 92.9053 33.6482C92.2671 34.2988 91.9097 35.1737 91.9097 36.0848C91.9097 36.996 92.2671 37.8708 92.9053 38.5214C93.5434 39.1721 94.4114 39.5466 95.3227 39.5646H100.937C101.848 39.5466 102.716 39.1721 103.354 38.5214C103.992 37.8708 104.35 36.996 104.35 36.0848C104.35 35.1737 103.992 34.2988 103.354 33.6482C102.716 32.9976 101.848 32.6231 100.937 32.6051H95.3227Z"
    fill="currentColor" />
</g>
<path
  d="M17.5252 64.528C17.4645 64.112 17.2955 63.8 17.0182 63.592C16.7495 63.3753 16.4072 63.267 15.9912 63.267C15.8005 63.267 15.5969 63.3017 15.3802 63.371C15.1635 63.4317 14.9642 63.553 14.7822 63.735C14.6002 63.9083 14.4485 64.1553 14.3272 64.476C14.2059 64.788 14.1452 65.1997 14.1452 65.711C14.1452 65.9883 14.1755 66.2657 14.2362 66.543C14.3055 66.8203 14.4095 67.0673 14.5482 67.284C14.6955 67.5007 14.8819 67.6783 15.1072 67.817C15.3325 67.947 15.6055 68.012 15.9262 68.012C16.3595 68.012 16.7149 67.8777 16.9922 67.609C17.2782 67.3403 17.4559 66.9633 17.5252 66.478H19.0072C18.8685 67.3533 18.5349 68.025 18.0062 68.493C17.4862 68.9523 16.7929 69.182 15.9262 69.182C15.3975 69.182 14.9295 69.0953 14.5222 68.922C14.1235 68.74 13.7855 68.4973 13.5082 68.194C13.2309 67.882 13.0185 67.5137 12.8712 67.089C12.7325 66.6643 12.6632 66.205 12.6632 65.711C12.6632 65.2083 12.7325 64.736 12.8712 64.294C13.0099 63.852 13.2179 63.4707 13.4952 63.15C13.7725 62.8207 14.1149 62.565 14.5222 62.383C14.9382 62.1923 15.4235 62.097 15.9782 62.097C16.3682 62.097 16.7365 62.149 17.0832 62.253C17.4385 62.3483 17.7505 62.4957 18.0192 62.695C18.2965 62.8943 18.5219 63.1457 18.6952 63.449C18.8685 63.7523 18.9725 64.112 19.0072 64.528H17.5252ZM33.6928 69.182C33.1555 69.182 32.6745 69.0953 32.2498 68.922C31.8338 68.74 31.4785 68.493 31.1838 68.181C30.8978 67.869 30.6768 67.4963 30.5208 67.063C30.3735 66.6297 30.2998 66.153 30.2998 65.633C30.2998 65.1217 30.3735 64.6493 30.5208 64.216C30.6768 63.7827 30.8978 63.41 31.1838 63.098C31.4785 62.786 31.8338 62.5433 32.2498 62.37C32.6745 62.188 33.1555 62.097 33.6928 62.097C34.2302 62.097 34.7068 62.188 35.1228 62.37C35.5475 62.5433 35.9028 62.786 36.1888 63.098C36.4835 63.41 36.7045 63.7827 36.8518 64.216C37.0078 64.6493 37.0858 65.1217 37.0858 65.633C37.0858 66.153 37.0078 66.6297 36.8518 67.063C36.7045 67.4963 36.4835 67.869 36.1888 68.181C35.9028 68.493 35.5475 68.74 35.1228 68.922C34.7068 69.0953 34.2302 69.182 33.6928 69.182ZM33.6928 68.012C34.0222 68.012 34.3082 67.9427 34.5508 67.804C34.7935 67.6653 34.9928 67.4833 35.1488 67.258C35.3048 67.0327 35.4175 66.7813 35.4868 66.504C35.5648 66.218 35.6038 65.9277 35.6038 65.633C35.6038 65.347 35.5648 65.061 35.4868 64.775C35.4175 64.489 35.3048 64.2377 35.1488 64.021C34.9928 63.7957 34.7935 63.6137 34.5508 63.475C34.3082 63.3363 34.0222 63.267 33.6928 63.267C33.3635 63.267 33.0775 63.3363 32.8348 63.475C32.5922 63.6137 32.3928 63.7957 32.2368 64.021C32.0808 64.2377 31.9638 64.489 31.8858 64.775C31.8165 65.061 31.7818 65.347 31.7818 65.633C31.7818 65.9277 31.8165 66.218 31.8858 66.504C31.9638 66.7813 32.0808 67.0327 32.2368 67.258C32.3928 67.4833 32.5922 67.6653 32.8348 67.804C33.0775 67.9427 33.3635 68.012 33.6928 68.012ZM48.7569 62.279H50.1609V63.189H50.1869C50.3949 62.799 50.6852 62.5217 51.0579 62.357C51.4306 62.1837 51.8336 62.097 52.2669 62.097C52.7956 62.097 53.2549 62.1923 53.6449 62.383C54.0436 62.565 54.3729 62.8207 54.6329 63.15C54.8929 63.4707 55.0879 63.8477 55.2179 64.281C55.3479 64.7143 55.4129 65.178 55.4129 65.672C55.4129 66.1227 55.3522 66.5603 55.2309 66.985C55.1182 67.4097 54.9406 67.7867 54.6979 68.116C54.4639 68.4367 54.1649 68.6967 53.8009 68.896C53.4369 69.0867 53.0079 69.182 52.5139 69.182C52.2972 69.182 52.0806 69.1603 51.8639 69.117C51.6472 69.0823 51.4392 69.0217 51.2399 68.935C51.0406 68.8483 50.8542 68.74 50.6809 68.61C50.5162 68.4713 50.3776 68.311 50.2649 68.129H50.2389V71.483H48.7569V62.279ZM53.9309 65.646C53.9309 65.3427 53.8919 65.048 53.8139 64.762C53.7359 64.476 53.6189 64.2247 53.4629 64.008C53.3069 63.7827 53.1119 63.605 52.8779 63.475C52.6439 63.3363 52.3752 63.267 52.0719 63.267C51.4479 63.267 50.9756 63.4837 50.6549 63.917C50.3429 64.3503 50.1869 64.9267 50.1869 65.646C50.1869 65.984 50.2259 66.3003 50.3039 66.595C50.3906 66.881 50.5162 67.128 50.6809 67.336C50.8456 67.544 51.0406 67.7087 51.2659 67.83C51.4999 67.9513 51.7686 68.012 52.0719 68.012C52.4099 68.012 52.6959 67.9427 52.9299 67.804C53.1639 67.6653 53.3546 67.4877 53.5019 67.271C53.6579 67.0457 53.7662 66.7943 53.8269 66.517C53.8962 66.231 53.9309 65.9407 53.9309 65.646ZM67.1042 59.718H68.5862V61.122H67.1042V59.718ZM67.1042 62.279H68.5862V69H67.1042V62.279ZM80.6399 59.718H82.1219V69H80.6399V59.718ZM97.2176 69.182C96.6803 69.182 96.1993 69.0953 95.7746 68.922C95.3586 68.74 95.0033 68.493 94.7086 68.181C94.4226 67.869 94.2016 67.4963 94.0456 67.063C93.8983 66.6297 93.8246 66.153 93.8246 65.633C93.8246 65.1217 93.8983 64.6493 94.0456 64.216C94.2016 63.7827 94.4226 63.41 94.7086 63.098C95.0033 62.786 95.3586 62.5433 95.7746 62.37C96.1993 62.188 96.6803 62.097 97.2176 62.097C97.755 62.097 98.2316 62.188 98.6476 62.37C99.0723 62.5433 99.4276 62.786 99.7136 63.098C100.008 63.41 100.229 63.7827 100.377 64.216C100.533 64.6493 100.611 65.1217 100.611 65.633C100.611 66.153 100.533 66.6297 100.377 67.063C100.229 67.4963 100.008 67.869 99.7136 68.181C99.4276 68.493 99.0723 68.74 98.6476 68.922C98.2316 69.0953 97.755 69.182 97.2176 69.182ZM97.2176 68.012C97.547 68.012 97.833 67.9427 98.0756 67.804C98.3183 67.6653 98.5176 67.4833 98.6736 67.258C98.8296 67.0327 98.9423 66.7813 99.0116 66.504C99.0896 66.218 99.1286 65.9277 99.1286 65.633C99.1286 65.347 99.0896 65.061 99.0116 64.775C98.9423 64.489 98.8296 64.2377 98.6736 64.021C98.5176 63.7957 98.3183 63.6137 98.0756 63.475C97.833 63.3363 97.547 63.267 97.2176 63.267C96.8883 63.267 96.6023 63.3363 96.3596 63.475C96.117 63.6137 95.9176 63.7957 95.7616 64.021C95.6056 64.2377 95.4886 64.489 95.4106 64.775C95.3413 65.061 95.3066 65.347 95.3066 65.633C95.3066 65.9277 95.3413 66.218 95.4106 66.504C95.4886 66.7813 95.6056 67.0327 95.7616 67.258C95.9176 67.4833 96.117 67.6653 96.3596 67.804C96.6023 67.9427 96.8883 68.012 97.2176 68.012ZM111.567 62.279H112.685V60.264H114.167V62.279H115.506V63.384H114.167V66.972C114.167 67.128 114.171 67.2623 114.18 67.375C114.197 67.4877 114.227 67.583 114.271 67.661C114.323 67.739 114.396 67.7997 114.492 67.843C114.587 67.8777 114.717 67.895 114.882 67.895C114.986 67.895 115.09 67.895 115.194 67.895C115.298 67.8863 115.402 67.869 115.506 67.843V68.987C115.341 69.0043 115.181 69.0217 115.025 69.039C114.869 69.0563 114.708 69.065 114.544 69.065C114.154 69.065 113.837 69.0303 113.595 68.961C113.361 68.883 113.174 68.7747 113.036 68.636C112.906 68.4887 112.815 68.3067 112.763 68.09C112.719 67.8733 112.693 67.6263 112.685 67.349V63.384H111.567V62.279Z"
  fill="currentColor" />
<defs>
<clipPath id="clip0_5_36">
  <rect width="128" height="48" fill="white" />
</clipPath>
</defs>
</svg>
