<svg viewBox="0 0 230 88" fill="none" xmlns="http://www.w3.org/2000/svg">
<g clip-path="url(#clip0_20_41045)">
<path d="M92 8H20V80H92V8Z" fill="#D6ED49"/>
<path fill-rule="evenodd" clip-rule="evenodd" d="M55.9997 22.2645C46.6726 22.2645 38.2985 29.1181 38.2985 38.9637C38.2985 43.5952 40.9702 47.8874 44.6968 50.9289C46.791 52.6382 48.4516 55.1757 48.4516 58.1407V59.6707H63.6813V58.0276C63.6813 55.9628 64.4871 54.1042 65.6831 52.589L68.5084 53.623C67.2577 54.883 66.4868 56.4303 66.4868 58.0276V61.0734C66.4868 61.8481 65.8588 62.4762 65.0841 62.4762H47.0489C46.2742 62.4762 45.6462 61.8481 45.6462 61.0734V58.1407C45.6462 56.2627 44.5806 54.4554 42.9229 53.1024C38.7703 49.7132 35.493 44.6924 35.493 38.9637C35.493 27.3006 45.4056 19.459 55.9997 19.459C66.5937 19.459 76.5063 27.3006 76.5063 38.9637C76.5063 41.1171 76.0416 43.1703 75.2416 45.0742L75.2232 45.1283C73.9153 48.9832 71.1232 49.8781 69.4462 49.5805C68.6743 49.4435 68.1932 48.9786 67.734 48.4915C67.2851 48.7885 66.7462 48.9615 66.1675 48.9615H64.4569C62.835 48.9615 61.5186 47.6507 61.5186 46.0319C61.5186 44.4131 62.835 43.1023 64.4569 43.1023H65.9334C66.139 43.1023 66.3401 43.1224 66.5347 43.1608C66.5319 43.0247 66.5271 42.9132 66.5192 42.8166C66.506 42.6558 66.4876 42.5962 66.4828 42.5836C66.434 42.4886 66.3564 42.4112 66.2608 42.3624C66.2482 42.3577 66.1884 42.3392 66.0265 42.326C65.7976 42.3074 65.4905 42.3064 64.9817 42.3064H62.4063V39.8468L65.0273 39.8468C65.4771 39.8468 65.8859 39.8468 66.2272 39.8746C66.5943 39.9045 66.9897 39.9725 67.3789 40.1702C67.939 40.4546 68.3945 40.9086 68.6801 41.4672C68.8785 41.8554 68.9468 42.25 68.9768 42.6161C69.0047 42.9565 69.0047 43.3642 69.0047 43.8126V45.9445C69.0099 46.0154 69.0128 46.0868 69.0131 46.1588C69.0135 46.2414 69.0657 46.4388 69.2053 46.6291C69.3389 46.8111 69.533 46.9602 69.7966 46.9965C70.1519 47.0456 71.3945 46.8929 72.481 44.3889L72.4787 44.388L72.4981 44.3454L72.5306 44.2727C72.5488 44.2294 72.5669 44.1853 72.585 44.1406L72.6827 43.8992L72.6895 43.9018C73.3364 42.332 73.7009 40.6708 73.7009 38.9637C73.7009 29.1181 65.3267 22.2645 55.9997 22.2645ZM65.9334 45.5619C66.2381 45.5619 66.4905 45.7827 66.5389 46.0713V46.1326C66.5389 46.3357 66.3734 46.5019 66.1675 46.5019H64.4569C64.1952 46.5019 63.9845 46.2906 63.9845 46.0319C63.9845 45.7731 64.1952 45.5619 64.4569 45.5619H65.9334Z" fill="black"/>
<path d="M50.3879 37.5612H46.9882V40.8068C46.4439 40.2166 45.6631 39.8468 44.796 39.8468H41.9726V42.3064H44.796C45.0791 42.3064 45.3072 42.535 45.3072 42.8151V45.938C45.3072 47.6086 46.6657 48.9615 48.3396 48.9615H50.3908V46.5019H48.3396C48.0259 46.5019 47.773 46.2486 47.773 45.938V42.8151C47.773 42.1091 47.5259 41.4609 47.1134 40.9516H50.3879V37.5612Z" fill="black"/>
<path d="M53.1369 43.267C53.1369 43.0598 53.2189 42.785 53.3752 42.585C53.505 42.4191 53.6679 42.3178 53.9284 42.3178C54.1521 42.3178 54.3197 42.4116 54.4706 42.6105C54.648 42.8445 54.7199 43.1302 54.7199 43.267V48.9612H57.1858V43.267C57.1858 43.0529 57.2591 42.7722 57.3991 42.579C57.456 42.5005 57.52 42.439 57.6027 42.3954C57.6854 42.3518 57.8025 42.3178 57.9773 42.3178C58.1567 42.3178 58.2757 42.3521 58.3587 42.3952C58.4413 42.4382 58.5036 42.498 58.5581 42.5726C58.6934 42.7579 58.7688 43.0351 58.7688 43.267V48.9612H61.2347V43.267C61.2347 42.6224 61.0517 41.81 60.5514 41.1247C60.0137 40.3883 59.1452 39.8582 57.9773 39.8582C57.1277 39.8582 56.4374 40.1423 55.9181 40.5799C55.4153 40.158 54.7482 39.8582 53.9284 39.8582C52.8194 39.8582 51.9704 40.3823 51.4308 41.0724C50.917 41.7296 50.6711 42.5444 50.6711 43.267V48.9612H53.1369V43.267Z" fill="black"/>
<path d="M65.8716 67.4844C66.1667 67.4844 66.4059 67.2452 66.4059 66.95V64.7844C66.4059 64.4893 66.1667 64.25 65.8716 64.25H46.4091C46.1139 64.25 45.8747 64.4893 45.8747 64.7844V66.95C45.8747 67.2452 46.1139 67.4844 46.4091 67.4844H65.8716Z" fill="black"/>
</g>
<path d="M188.375 28.4639L189.029 26.4348H193.448C193.338 26.8057 193.218 27.1657 193.088 27.5148C192.978 27.8421 192.869 28.1585 192.76 28.4639H205.295V31.933H191.549C191.288 32.6748 191.015 33.4057 190.731 34.1257C190.448 34.8457 190.131 35.5876 189.782 36.3512H194.069V33.0785H198.16V36.3512H205.098V39.853H198.16V42.733H206.015V46.2676H198.16V50.3912H193.644V46.2676H183.269V42.733H193.644V39.853H183.924C184.469 38.6312 185.015 37.3548 185.56 36.0239C186.106 34.6712 186.629 33.3076 187.131 31.933H183.793V28.4639H188.375ZM176.397 50.3912C177.008 48.7766 177.444 46.9112 177.706 44.7948C177.989 42.6567 178.131 40.3112 178.131 37.7585V22.2785H190.437C190.306 21.973 190.164 21.6894 190.011 21.4276C189.88 21.1439 189.749 20.8712 189.618 20.6094H194.822C194.975 20.8494 195.128 21.1112 195.28 21.3948C195.433 21.6785 195.597 21.973 195.771 22.2785H205.851V25.813H182.451V37.7585C182.451 40.4203 182.342 42.8312 182.124 44.9912C181.928 47.1294 181.513 48.9294 180.88 50.3912H176.397Z" fill="black"/>
<path d="M170.735 21.1985V37.7912H153.488V21.1985H170.735ZM149.168 27.2203V46.5948H151.458V50.3912H144.749V30.7548H142.262V27.2203H149.168ZM157.709 34.1257H166.513V24.8639H157.709V34.1257ZM151.753 50.3912C152.146 49.7148 152.538 48.9076 152.931 47.9694C153.346 47.0312 153.717 46.0712 154.044 45.0894C154.393 44.0857 154.698 43.093 154.96 42.1112C155.222 41.1076 155.408 40.213 155.517 39.4276H160C159.891 40.2785 159.717 41.2166 159.477 42.2421C159.258 43.2457 158.997 44.2494 158.691 45.253C158.386 46.2348 158.058 47.173 157.709 48.0676C157.36 48.9621 157.011 49.7366 156.662 50.3912H151.753ZM167.168 50.3912C167.037 49.693 166.851 48.8857 166.611 47.9694C166.393 47.053 166.153 46.1039 165.891 45.1221C165.629 44.1403 165.357 43.1585 165.073 42.1766C164.789 41.1948 164.506 40.2785 164.222 39.4276H168.542C168.826 40.213 169.12 41.0857 169.426 42.0457C169.753 42.9839 170.058 43.9439 170.342 44.9257C170.648 45.9076 170.92 46.8676 171.16 47.8057C171.422 48.7439 171.64 49.6057 171.815 50.3912H167.168ZM145.371 25.8785C145.306 25.4857 145.218 25.0603 145.109 24.6021C145 24.1221 144.88 23.653 144.749 23.1948C144.618 22.7148 144.488 22.2566 144.357 21.8203C144.226 21.3621 144.095 20.9585 143.964 20.6094H148.12C148.251 20.893 148.382 21.253 148.513 21.6894C148.666 22.1039 148.808 22.5621 148.938 23.0639C149.091 23.5439 149.233 24.0348 149.364 24.5366C149.495 25.0166 149.604 25.4639 149.691 25.8785H145.371Z" fill="black"/>
<path d="M136.96 21.7876V50.3912H124.262V21.7876H136.96ZM107.636 31.1803C107.833 30.3948 108.018 29.533 108.193 28.5948C108.389 27.6348 108.564 26.6748 108.716 25.7148C108.869 24.7548 109 23.8276 109.109 22.933C109.24 22.0385 109.338 21.2639 109.404 20.6094H112.971L112.709 22.8348H122.56V26.4676H118.207C118.164 27.493 118.098 28.5294 118.011 29.5766C117.924 30.6021 117.815 31.6385 117.684 32.6857H123.051V36.4166H117.095L116.866 37.7585H119.549C120.247 39.853 120.88 41.9585 121.447 44.0748C122.036 46.1912 122.582 48.2966 123.084 50.3912H119.058C118.666 48.7766 118.24 47.0967 117.782 45.3512C117.346 43.6057 116.876 41.8494 116.375 40.0821C115.873 42.2203 115.316 44.1839 114.706 45.973C114.095 47.7403 113.473 49.213 112.84 50.3912H107.898C108.378 49.6276 108.847 48.733 109.306 47.7076C109.786 46.6821 110.233 45.5803 110.647 44.4021C111.084 43.2021 111.487 41.9257 111.858 40.573C112.229 39.2203 112.567 37.8348 112.873 36.4166H107.931V32.6857H113.56C113.844 30.6348 114.04 28.5621 114.149 26.4676H112.186C111.924 28.213 111.64 29.7839 111.335 31.1803H107.636ZM128.287 46.5294H132.869V25.5839H128.287V46.5294Z" fill="black"/>
<path d="M110.103 53.9138C110.378 53.9138 110.613 53.9923 110.797 54.1756C110.98 54.3458 111.072 54.5683 111.072 54.8432C111.072 55.1181 110.967 55.3407 110.784 55.524C110.6 55.6941 110.365 55.7858 110.103 55.7858C109.828 55.7858 109.605 55.6941 109.422 55.524C109.239 55.3407 109.147 55.1051 109.147 54.8432C109.147 54.5683 109.239 54.3458 109.422 54.1756C109.605 53.9923 109.828 53.9138 110.103 53.9138ZM109.409 56.6236H110.797V63.3916H109.409V56.6236ZM118.785 56.4403C119.78 56.4403 120.5 56.82 120.919 57.5792C121.22 57.1603 121.547 56.8592 121.888 56.6891C122.202 56.5189 122.581 56.4403 123.04 56.4403C123.733 56.4403 124.309 56.6629 124.768 57.1341C125.213 57.5923 125.448 58.1945 125.448 58.9538V63.3916H124.061V59.1894C124.061 58.6396 123.943 58.2338 123.707 57.9851C123.472 57.7232 123.079 57.6054 122.555 57.6054C122.163 57.6054 121.848 57.7494 121.587 58.0374C121.325 58.3254 121.194 58.7312 121.194 59.2287V63.3916H119.806V59.2025C119.806 58.1291 119.335 57.6054 118.419 57.6054C117.973 57.6054 117.607 57.7756 117.345 58.116C117.057 58.4432 116.926 58.8491 116.926 59.3203V63.3916H115.539V56.6236H116.926V57.3698C117.476 56.7414 118.104 56.4403 118.785 56.4403ZM132.933 56.4403C133.927 56.4403 134.661 56.6891 135.132 57.1865C135.538 57.6185 135.747 58.2469 135.747 59.0716V63.3916H134.464V62.436C134.202 62.7763 133.875 63.0512 133.482 63.2476C133.037 63.4571 132.514 63.5749 131.911 63.5749C131.205 63.5749 130.655 63.3916 130.262 63.0381C129.83 62.6847 129.621 62.2265 129.621 61.6636C129.621 60.9043 129.922 60.3152 130.524 59.9094C131.074 59.5167 131.859 59.3203 132.854 59.2941L134.373 59.2549V58.98C134.373 58.0374 133.862 57.5661 132.841 57.5661C132.409 57.5661 132.055 57.6447 131.794 57.8018C131.479 57.9851 131.283 58.26 131.205 58.6396L129.83 58.5218C129.974 57.7887 130.341 57.2389 130.917 56.8985C131.414 56.5843 132.095 56.4403 132.933 56.4403ZM134.373 60.2629L132.946 60.3021C131.676 60.3283 131.047 60.7734 131.047 61.6112C131.047 61.8731 131.152 62.0825 131.375 62.2527C131.584 62.4229 131.872 62.5145 132.226 62.5145C132.815 62.5145 133.312 62.3312 133.731 61.9778C134.15 61.6243 134.373 61.1792 134.373 60.6556V60.2629ZM141.194 61.5196C141.456 61.5196 141.691 61.6112 141.888 61.7945C142.071 61.9778 142.176 62.2134 142.176 62.5014C142.176 62.7632 142.071 62.9989 141.888 63.1952C141.691 63.3654 141.456 63.4571 141.194 63.4571C140.906 63.4571 140.683 63.3654 140.513 63.1952C140.317 62.9989 140.225 62.7632 140.225 62.5014C140.225 62.2134 140.317 61.9778 140.513 61.7945C140.683 61.6112 140.906 61.5196 141.194 61.5196ZM149.64 56.4403C150.504 56.4403 151.198 56.6367 151.722 57.0294C152.245 57.4483 152.586 58.0767 152.717 58.9145H151.342C151.251 58.4563 151.067 58.116 150.779 57.9065C150.491 57.684 150.112 57.5792 149.64 57.5792C149.064 57.5792 148.619 57.7887 148.292 58.2207C147.952 58.6396 147.795 59.2418 147.795 60.0011C147.795 60.7603 147.952 61.3625 148.279 61.7945C148.58 62.2134 149.025 62.436 149.627 62.436C150.661 62.436 151.237 61.9123 151.368 60.8912H152.743C152.586 61.7945 152.232 62.4752 151.709 62.9203C151.185 63.3523 150.478 63.5749 149.614 63.5749C148.58 63.5749 147.781 63.2345 147.205 62.5538C146.643 61.8992 146.368 61.0614 146.368 60.0141C146.368 58.9931 146.643 58.1552 147.192 57.5007C147.781 56.7938 148.593 56.4403 149.64 56.4403ZM159.908 56.4403C160.93 56.4403 161.754 56.7807 162.37 57.4614C162.972 58.1291 163.286 58.98 163.286 60.0141C163.286 61.0352 162.985 61.8861 162.383 62.5407C161.754 63.2214 160.93 63.5749 159.908 63.5749C158.887 63.5749 158.063 63.2214 157.434 62.5407C156.832 61.8861 156.531 61.0352 156.531 60.0141C156.531 58.98 156.832 58.1291 157.447 57.4614C158.063 56.7807 158.887 56.4403 159.908 56.4403ZM159.908 57.5792C159.267 57.5792 158.77 57.828 158.416 58.3385C158.102 58.7705 157.958 59.3334 157.958 60.0141C157.958 60.6949 158.102 61.2447 158.416 61.6767C158.77 62.1741 159.267 62.436 159.908 62.436C160.55 62.436 161.047 62.1741 161.414 61.6767C161.728 61.2316 161.885 60.6818 161.885 60.0141C161.885 59.3334 161.728 58.7705 161.414 58.3385C161.047 57.828 160.55 57.5792 159.908 57.5792ZM170.858 56.4403C171.853 56.4403 172.625 56.7938 173.201 57.5007C173.725 58.1552 173.987 58.9931 173.987 60.0403C173.987 61.0352 173.725 61.86 173.214 62.5145C172.665 63.2214 171.892 63.5749 170.924 63.5749C170.086 63.5749 169.405 63.1821 168.855 62.3967V65.9836H167.468V56.6236H168.764V57.4352C169.235 56.7676 169.942 56.4403 170.858 56.4403ZM170.649 57.5661C170.046 57.5661 169.575 57.8018 169.248 58.2861C168.96 58.7051 168.816 59.268 168.816 59.9618V60.0796C168.816 60.7996 168.986 61.3887 169.353 61.8338C169.667 62.2396 170.086 62.4491 170.609 62.4491C171.29 62.4491 171.788 62.2265 172.115 61.7814C172.403 61.3625 172.56 60.7865 172.56 60.0403C172.56 59.2941 172.416 58.7181 172.154 58.2992C171.827 57.8018 171.329 57.5661 170.649 57.5661ZM179.137 53.9138C179.412 53.9138 179.647 53.9923 179.831 54.1756C180.014 54.3458 180.106 54.5683 180.106 54.8432C180.106 55.1181 180.001 55.3407 179.818 55.524C179.634 55.6941 179.399 55.7858 179.137 55.7858C178.862 55.7858 178.639 55.6941 178.456 55.524C178.273 55.3407 178.181 55.1051 178.181 54.8432C178.181 54.5683 178.273 54.3458 178.456 54.1756C178.639 53.9923 178.862 53.9138 179.137 53.9138ZM178.443 56.6236H179.831V63.3916H178.443V56.6236ZM184.73 53.8614H186.117V63.3916H184.73V53.8614ZM193.825 56.4403C194.846 56.4403 195.67 56.7807 196.286 57.4614C196.888 58.1291 197.202 58.98 197.202 60.0141C197.202 61.0352 196.901 61.8861 196.299 62.5407C195.67 63.2214 194.846 63.5749 193.825 63.5749C192.804 63.5749 191.979 63.2214 191.35 62.5407C190.748 61.8861 190.447 61.0352 190.447 60.0141C190.447 58.98 190.748 58.1291 191.364 57.4614C191.979 56.7807 192.804 56.4403 193.825 56.4403ZM193.825 57.5792C193.183 57.5792 192.686 57.828 192.332 58.3385C192.018 58.7705 191.874 59.3334 191.874 60.0141C191.874 60.6949 192.018 61.2447 192.332 61.6767C192.686 62.1741 193.183 62.436 193.825 62.436C194.466 62.436 194.964 62.1741 195.33 61.6767C195.644 61.2316 195.801 60.6818 195.801 60.0141C195.801 59.3334 195.644 58.7705 195.33 58.3385C194.964 57.828 194.466 57.5792 193.825 57.5792ZM203.439 54.4374V56.6236H204.984V57.7756H203.439V61.7029C203.439 61.8861 203.478 62.0171 203.557 62.1087C203.635 62.1872 203.753 62.2396 203.923 62.2396H204.814V63.3916H203.701C203.125 63.3916 202.693 63.2345 202.431 62.9334C202.169 62.6454 202.051 62.2396 202.051 61.7029V57.7756H200.795V56.6236H202.051V55.0134L203.439 54.4374Z" fill="black" fill-opacity="0.86"/>
<defs>
<clipPath id="clip0_20_41045">
<rect x="20" y="8" width="72" height="72" rx="36" fill="white"/>
</clipPath>
</defs>
</svg>
