<svg width="272" height="100" viewBox="0 0 272 100" fill="none" xmlns="http://www.w3.org/2000/svg">
  <g clip-path="url(#clip0_4980_187222)">
    <path
      d="M105.898 59.6042H97.8618C94.7234 59.6006 91.7145 58.3528 89.4953 56.1345C87.2761 53.9162 86.0278 50.9086 86.0242 47.7715V33.8483C86.0242 32.9465 85.6658 32.0817 85.0279 31.444C84.3899 30.8064 83.5247 30.4481 82.6226 30.4481H72V22.0156H82.6226C85.761 22.0192 88.7698 23.267 90.989 25.4853C93.2082 27.7036 94.4566 30.7112 94.4602 33.8483V47.7715C94.4602 48.6733 94.8186 49.5381 95.4565 50.1758C96.0944 50.8135 96.9596 51.1717 97.8618 51.1717H105.898V59.6042Z"
      fill="currentColor"
    />
    <path
      d="M152.786 59.6007H144.35V35.7993C144.35 34.7521 144.049 33.2152 143.203 32.055C142.407 30.9669 141.298 30.4528 139.714 30.4528C138.13 30.4528 137.04 30.9724 136.236 32.0849C135.382 33.2682 135.078 34.8241 135.078 35.798V59.6007H126.642V35.7993C126.642 34.9153 126.226 33.4124 125.311 32.2046C123.989 30.4528 122.496 30.4528 122.006 30.4528C120.608 30.4528 119.515 30.9846 118.662 32.0849C117.848 33.1551 117.395 34.4555 117.367 35.7993V59.6007H108.931V35.7993C108.954 32.573 110.033 29.443 112.004 26.8881C114.454 23.7436 118.006 22.0122 122.005 22.0122C123.622 21.9982 125.226 22.308 126.722 22.9233C128.217 23.5386 129.574 24.4468 130.713 25.5946C133.041 23.2702 136.171 22.0122 139.717 22.0122C143.985 22.0122 147.648 23.8143 150.029 27.0866C151.784 29.4994 152.791 32.6725 152.791 35.7912L152.786 59.6007Z"
      fill="currentColor"
    />
    <path 
      d="M105.518 12H93V24.5128H105.518V12Z" 
      fill="currentColor"
    />
    <path
      d="M172.937 59.9999H167.323C164.183 59.9664 161.184 58.6963 158.976 56.4654C156.768 54.2346 155.529 51.2231 155.529 48.0849C155.529 44.9467 156.768 41.9352 158.976 39.7044C161.184 37.4735 164.183 36.2034 167.323 36.1699H172.937C174.406 36.1686 175.862 36.4402 177.232 36.971V36.0257C177.232 34.9526 177.232 34.1039 177.185 33.821C177.066 33.1266 176.735 32.4862 176.236 31.9882C175.738 31.4902 175.097 31.1592 174.402 31.041C174.119 30.9921 173.271 30.9921 172.198 30.9921H158.537V22.5596H172.198C173.896 22.5596 174.832 22.5596 175.817 22.7269C178.234 23.1394 180.464 24.2915 182.199 26.0243C183.934 27.757 185.088 29.985 185.502 32.4011C185.671 33.3872 185.671 34.3216 185.671 36.0203V46.123C185.671 47.4607 186.202 48.7436 187.148 49.69C188.094 50.6364 189.377 51.1688 190.715 51.1702H200V59.6027H190.715C187.387 59.6054 184.176 58.3729 181.706 56.1441C180.592 57.3597 179.237 58.3303 177.727 58.9941C176.217 59.6579 174.586 60.0004 172.937 59.9999ZM167.323 44.6051C166.411 44.6231 165.543 44.9977 164.905 45.6483C164.267 46.2989 163.909 47.1737 163.909 48.0849C163.909 48.9961 164.267 49.8709 164.905 50.5215C165.543 51.1721 166.411 51.5467 167.323 51.5647H172.937C173.848 51.5467 174.716 51.1721 175.354 50.5215C175.992 49.8709 176.35 48.9961 176.35 48.0849C176.35 47.1737 175.992 46.2989 175.354 45.6483C174.716 44.9977 173.848 44.6231 172.937 44.6051H167.323Z"
      fill="currentColor"
    />
  </g>
  <path
    d="M89.5252 76.528C89.4645 76.112 89.2955 75.8 89.0182 75.592C88.7495 75.3753 88.4072 75.267 87.9912 75.267C87.8005 75.267 87.5969 75.3017 87.3802 75.371C87.1635 75.4317 86.9642 75.553 86.7822 75.735C86.6002 75.9083 86.4485 76.1553 86.3272 76.476C86.2059 76.788 86.1452 77.1997 86.1452 77.711C86.1452 77.9883 86.1755 78.2657 86.2362 78.543C86.3055 78.8203 86.4095 79.0673 86.5482 79.284C86.6955 79.5007 86.8819 79.6783 87.1072 79.817C87.3325 79.947 87.6055 80.012 87.9262 80.012C88.3595 80.012 88.7149 79.8777 88.9922 79.609C89.2782 79.3403 89.4559 78.9633 89.5252 78.478H91.0072C90.8685 79.3533 90.5349 80.025 90.0062 80.493C89.4862 80.9523 88.7929 81.182 87.9262 81.182C87.3975 81.182 86.9295 81.0953 86.5222 80.922C86.1235 80.74 85.7855 80.4973 85.5082 80.194C85.2309 79.882 85.0185 79.5137 84.8712 79.089C84.7325 78.6643 84.6632 78.205 84.6632 77.711C84.6632 77.2083 84.7325 76.736 84.8712 76.294C85.0099 75.852 85.2179 75.4707 85.4952 75.15C85.7725 74.8207 86.1149 74.565 86.5222 74.383C86.9382 74.1923 87.4235 74.097 87.9782 74.097C88.3682 74.097 88.7365 74.149 89.0832 74.253C89.4385 74.3483 89.7505 74.4957 90.0192 74.695C90.2965 74.8943 90.5219 75.1457 90.6952 75.449C90.8685 75.7523 90.9725 76.112 91.0072 76.528H89.5252ZM105.693 81.182C105.156 81.182 104.675 81.0953 104.25 80.922C103.834 80.74 103.479 80.493 103.184 80.181C102.898 79.869 102.677 79.4963 102.521 79.063C102.374 78.6297 102.3 78.153 102.3 77.633C102.3 77.1217 102.374 76.6493 102.521 76.216C102.677 75.7827 102.898 75.41 103.184 75.098C103.479 74.786 103.834 74.5433 104.25 74.37C104.675 74.188 105.156 74.097 105.693 74.097C106.23 74.097 106.707 74.188 107.123 74.37C107.548 74.5433 107.903 74.786 108.189 75.098C108.484 75.41 108.705 75.7827 108.852 76.216C109.008 76.6493 109.086 77.1217 109.086 77.633C109.086 78.153 109.008 78.6297 108.852 79.063C108.705 79.4963 108.484 79.869 108.189 80.181C107.903 80.493 107.548 80.74 107.123 80.922C106.707 81.0953 106.23 81.182 105.693 81.182ZM105.693 80.012C106.022 80.012 106.308 79.9427 106.551 79.804C106.794 79.6653 106.993 79.4833 107.149 79.258C107.305 79.0327 107.418 78.7813 107.487 78.504C107.565 78.218 107.604 77.9277 107.604 77.633C107.604 77.347 107.565 77.061 107.487 76.775C107.418 76.489 107.305 76.2377 107.149 76.021C106.993 75.7957 106.794 75.6137 106.551 75.475C106.308 75.3363 106.022 75.267 105.693 75.267C105.364 75.267 105.078 75.3363 104.835 75.475C104.592 75.6137 104.393 75.7957 104.237 76.021C104.081 76.2377 103.964 76.489 103.886 76.775C103.817 77.061 103.782 77.347 103.782 77.633C103.782 77.9277 103.817 78.218 103.886 78.504C103.964 78.7813 104.081 79.0327 104.237 79.258C104.393 79.4833 104.592 79.6653 104.835 79.804C105.078 79.9427 105.364 80.012 105.693 80.012ZM120.757 74.279H122.161V75.189H122.187C122.395 74.799 122.685 74.5217 123.058 74.357C123.431 74.1837 123.834 74.097 124.267 74.097C124.796 74.097 125.255 74.1923 125.645 74.383C126.044 74.565 126.373 74.8207 126.633 75.15C126.893 75.4707 127.088 75.8477 127.218 76.281C127.348 76.7143 127.413 77.178 127.413 77.672C127.413 78.1227 127.352 78.5603 127.231 78.985C127.118 79.4097 126.941 79.7867 126.698 80.116C126.464 80.4367 126.165 80.6967 125.801 80.896C125.437 81.0867 125.008 81.182 124.514 81.182C124.297 81.182 124.081 81.1603 123.864 81.117C123.647 81.0823 123.439 81.0217 123.24 80.935C123.041 80.8483 122.854 80.74 122.681 80.61C122.516 80.4713 122.378 80.311 122.265 80.129H122.239V83.483H120.757V74.279ZM125.931 77.646C125.931 77.3427 125.892 77.048 125.814 76.762C125.736 76.476 125.619 76.2247 125.463 76.008C125.307 75.7827 125.112 75.605 124.878 75.475C124.644 75.3363 124.375 75.267 124.072 75.267C123.448 75.267 122.976 75.4837 122.655 75.917C122.343 76.3503 122.187 76.9267 122.187 77.646C122.187 77.984 122.226 78.3003 122.304 78.595C122.391 78.881 122.516 79.128 122.681 79.336C122.846 79.544 123.041 79.7087 123.266 79.83C123.5 79.9513 123.769 80.012 124.072 80.012C124.41 80.012 124.696 79.9427 124.93 79.804C125.164 79.6653 125.355 79.4877 125.502 79.271C125.658 79.0457 125.766 78.7943 125.827 78.517C125.896 78.231 125.931 77.9407 125.931 77.646ZM139.104 71.718H140.586V73.122H139.104V71.718ZM139.104 74.279H140.586V81H139.104V74.279ZM152.64 71.718H154.122V81H152.64V71.718ZM169.218 81.182C168.68 81.182 168.199 81.0953 167.775 80.922C167.359 80.74 167.003 80.493 166.709 80.181C166.423 79.869 166.202 79.4963 166.046 79.063C165.898 78.6297 165.825 78.153 165.825 77.633C165.825 77.1217 165.898 76.6493 166.046 76.216C166.202 75.7827 166.423 75.41 166.709 75.098C167.003 74.786 167.359 74.5433 167.775 74.37C168.199 74.188 168.68 74.097 169.218 74.097C169.755 74.097 170.232 74.188 170.648 74.37C171.072 74.5433 171.428 74.786 171.714 75.098C172.008 75.41 172.229 75.7827 172.377 76.216C172.533 76.6493 172.611 77.1217 172.611 77.633C172.611 78.153 172.533 78.6297 172.377 79.063C172.229 79.4963 172.008 79.869 171.714 80.181C171.428 80.493 171.072 80.74 170.648 80.922C170.232 81.0953 169.755 81.182 169.218 81.182ZM169.218 80.012C169.547 80.012 169.833 79.9427 170.076 79.804C170.318 79.6653 170.518 79.4833 170.674 79.258C170.83 79.0327 170.942 78.7813 171.012 78.504C171.09 78.218 171.129 77.9277 171.129 77.633C171.129 77.347 171.09 77.061 171.012 76.775C170.942 76.489 170.83 76.2377 170.674 76.021C170.518 75.7957 170.318 75.6137 170.076 75.475C169.833 75.3363 169.547 75.267 169.218 75.267C168.888 75.267 168.602 75.3363 168.36 75.475C168.117 75.6137 167.918 75.7957 167.762 76.021C167.606 76.2377 167.489 76.489 167.411 76.775C167.341 77.061 167.307 77.347 167.307 77.633C167.307 77.9277 167.341 78.218 167.411 78.504C167.489 78.7813 167.606 79.0327 167.762 79.258C167.918 79.4833 168.117 79.6653 168.36 79.804C168.602 79.9427 168.888 80.012 169.218 80.012ZM183.567 74.279H184.685V72.264H186.167V74.279H187.506V75.384H186.167V78.972C186.167 79.128 186.171 79.2623 186.18 79.375C186.197 79.4877 186.227 79.583 186.271 79.661C186.323 79.739 186.396 79.7997 186.492 79.843C186.587 79.8777 186.717 79.895 186.882 79.895C186.986 79.895 187.09 79.895 187.194 79.895C187.298 79.8863 187.402 79.869 187.506 79.843V80.987C187.341 81.0043 187.181 81.0217 187.025 81.039C186.869 81.0563 186.708 81.065 186.544 81.065C186.154 81.065 185.837 81.0303 185.595 80.961C185.361 80.883 185.174 80.7747 185.036 80.636C184.906 80.4887 184.815 80.3067 184.763 80.09C184.719 79.8733 184.693 79.6263 184.685 79.349V75.384H183.567V74.279Z"
    fill="currentColor"
  />
  <defs>
    <clipPath id="clip0_4980_187222">
      <rect width="128" height="48" fill="white" transform="translate(72 12)" />
    </clipPath>
  </defs>
</svg>
