<svg viewBox="0 0 58 40" fill="none" xmlns="http://www.w3.org/2000/svg">
    <rect y="5.41895" width="22.0904" height="33.7725" fill="#D3DCD6" />
    <path d="M3 5.41797H25V39.198H3V5.41797Z" fill="url(#paint0_linear_811_179170)" />
    <rect x="19.6016" y="0.808594" width="16.1055" height="16.001" fill="url(#paint1_linear_811_179170)" />
    <rect x="17.0117" y="10.7637" width="40.9867" height="18.1723" rx="9.08617" fill="url(#paint2_linear_811_179170)" />
    <path d="M32.5092 23H41.6883L49.1975 39.3661H25L32.5092 23Z" fill="url(#paint3_linear_811_179170)" />
    <path
        d="M43.5337 24.0317H42.607C42.0887 24.0261 41.5936 23.8166 41.2291 23.4485C40.8646 23.0805 40.6602 22.5836 40.6602 22.0658C40.6602 21.5481 40.8646 21.0512 41.2291 20.6832C41.5936 20.3151 42.0887 20.1056 42.607 20.1H43.5337C43.7762 20.0998 44.0167 20.1446 44.2428 20.2322V20.0762C44.2428 19.8992 44.2428 19.7592 44.235 19.7125C44.2154 19.5979 44.1607 19.4923 44.0784 19.4101C43.9961 19.3279 43.8903 19.2733 43.7756 19.2538C43.7289 19.2457 43.589 19.2457 43.4118 19.2457H41.1567V17.8545H43.4118C43.6921 17.8545 43.8466 17.8545 44.0092 17.8821C44.4083 17.9502 44.7764 18.1402 45.0627 18.4261C45.3491 18.712 45.5396 19.0796 45.608 19.4782C45.6359 19.6409 45.6359 19.7951 45.6359 20.0753V21.7421C45.6359 21.9628 45.7236 22.1745 45.8797 22.3307C46.0358 22.4868 46.2476 22.5746 46.4685 22.5749H48.0013V23.9661H46.4685C45.9191 23.9666 45.3892 23.7632 44.9813 23.3955C44.7974 23.5961 44.5737 23.7562 44.3245 23.8657C44.0753 23.9752 43.806 24.0317 43.5337 24.0317ZM42.607 21.4917C42.4565 21.4947 42.3132 21.5565 42.2079 21.6638C42.1026 21.7712 42.0435 21.9155 42.0435 22.0658C42.0435 22.2162 42.1026 22.3605 42.2079 22.4678C42.3132 22.5752 42.4565 22.637 42.607 22.64H43.5337C43.6842 22.637 43.8274 22.5752 43.9328 22.4678C44.0381 22.3605 44.0971 22.2162 44.0971 22.0658C44.0971 21.9155 44.0381 21.7712 43.9328 21.6638C43.8274 21.5565 43.6842 21.4947 43.5337 21.4917H42.607Z"
        fill="#66896D" />
    <path
        d="M40.2075 23.9933H38.8308V20.1062C38.8308 19.9352 38.7817 19.6842 38.6436 19.4947C38.5137 19.317 38.3328 19.233 38.0743 19.233C37.8158 19.233 37.638 19.3179 37.5068 19.4996C37.3673 19.6928 37.3178 19.9469 37.3178 20.106V23.9933H35.9411V20.1062C35.9411 19.9618 35.8732 19.7164 35.724 19.5191C35.5081 19.233 35.2646 19.233 35.1846 19.233C34.9564 19.233 34.7781 19.3199 34.6388 19.4996C34.5061 19.6744 34.4321 19.8867 34.4275 20.1062V23.9933H33.0508V20.1062C33.0545 19.5793 33.2307 19.0681 33.5524 18.6509C33.9521 18.1373 34.5318 17.8546 35.1844 17.8546C35.4483 17.8523 35.71 17.9029 35.9541 18.0034C36.1981 18.1038 36.4196 18.2522 36.6055 18.4396C36.9854 18.06 37.4961 17.8546 38.0747 17.8546C38.7713 17.8546 39.369 18.1489 39.7576 18.6833C40.044 19.0773 40.2084 19.5955 40.2084 20.1049L40.2075 23.9933Z"
        fill="#66896D" />
    <path
        d="M32.5127 23.9894H31.2058C30.6954 23.9888 30.2061 23.785 29.8452 23.4227C29.4843 23.0605 29.2813 22.5693 29.2807 22.0569V19.7831C29.2807 19.6358 29.2224 19.4945 29.1187 19.3904C29.0149 19.2863 28.8742 19.2277 28.7275 19.2277H27V17.8506H28.7275C29.2379 17.8512 29.7272 18.055 30.0881 18.4172C30.449 18.7795 30.652 19.2707 30.6526 19.7831V22.0569C30.6526 22.2042 30.7109 22.3455 30.8146 22.4496C30.9184 22.5537 31.0591 22.6122 31.2058 22.6122H32.5127V23.9894Z"
        fill="#66896D" />
    <path d="M32.5177 15.8252H30.5156V17.8322H32.5177V15.8252Z" fill="#66896D" />
    <defs>
        <linearGradient id="paint0_linear_811_179170" x1="24" y1="33" x2="7.5" y2="1" gradientUnits="userSpaceOnUse">
            <stop stop-color="#EEF3EE" />
            <stop offset="1" stop-color="#DAE1DC" />
        </linearGradient>
        <linearGradient id="paint1_linear_811_179170" x1="19.9996" y1="16.9998" x2="32.3837" y2="-4.91353"
            gradientUnits="userSpaceOnUse">
            <stop stop-color="#EEF3EE" />
            <stop offset="1" stop-color="#FFC6D6" />
        </linearGradient>
        <linearGradient id="paint2_linear_811_179170" x1="49.5408" y1="25.9171" x2="49.5408" y2="4.26506"
            gradientUnits="userSpaceOnUse">
            <stop stop-color="white" />
            <stop offset="1" stop-color="#A0F2B7" />
        </linearGradient>
        <linearGradient id="paint3_linear_811_179170" x1="45.5" y1="42.5" x2="44.2044" y2="17.1473"
            gradientUnits="userSpaceOnUse">
            <stop stop-color="white" />
            <stop offset="1" stop-color="#E6F881" />
        </linearGradient>
    </defs>
</svg>