<svg viewBox="0 0 98 17" fill="none" xmlns="http://www.w3.org/2000/svg">
<path d="M11.4133 15.7148H8.93014C7.96035 15.7136 7.0306 15.3284 6.34486 14.6437C5.65911 13.9589 5.27337 13.0305 5.27226 12.062V7.76403C5.27226 7.48565 5.16152 7.21868 4.9644 7.02183C4.76727 6.82499 4.49992 6.71441 4.22114 6.71441H0.938721V4.11133H4.22114C5.19093 4.11244 6.12068 4.49763 6.80643 5.18241C7.49217 5.86718 7.87791 6.79562 7.87903 7.76403V12.062C7.87903 12.3404 7.98977 12.6074 8.18689 12.8042C8.38401 13.0011 8.65137 13.1117 8.93014 13.1117H11.4133V15.7148Z" fill="#242424"/>
<path d="M25.9526 15.7148H23.3392V8.35755C23.3392 8.03384 23.2461 7.55877 22.9839 7.20016C22.7373 6.86383 22.3938 6.70492 21.9031 6.70492C21.4125 6.70492 21.0748 6.86551 20.8257 7.20941C20.561 7.57517 20.467 8.05612 20.467 8.35713V15.7148H17.8536V8.35755C17.8536 8.08428 17.7246 7.61973 17.4413 7.24641C17.0316 6.70492 16.5692 6.70492 16.4175 6.70492C15.9842 6.70492 15.6457 6.8693 15.3814 7.20941C15.1293 7.54021 14.9889 7.94216 14.9801 8.35755V15.7148H12.3667V8.35755C12.3738 7.36027 12.7083 6.39276 13.3189 5.60302C14.0776 4.63103 15.1782 4.09584 16.4171 4.09584C16.9181 4.09153 17.4149 4.18729 17.8782 4.37748C18.3415 4.56766 18.7619 4.84842 19.1148 5.20321C19.836 4.48472 20.8055 4.09584 21.904 4.09584C23.2263 4.09584 24.361 4.65289 25.0986 5.6644C25.6424 6.41021 25.9543 7.39103 25.9543 8.35503L25.9526 15.7148Z" fill="#242424"/>
<path d="M11.4132 0.286621H7.59912V4.09614H11.4132V0.286621Z" fill="#242424"/>
<path d="M32.344 15.7164H30.5907C29.6103 15.7061 28.6736 15.3127 27.9841 14.6218C27.2945 13.9309 26.9077 12.9982 26.9077 12.0263C26.9077 11.0544 27.2945 10.1218 27.9841 9.43088C28.6736 8.73998 29.6103 8.34663 30.5907 8.33625H32.344C32.8028 8.33583 33.2577 8.41995 33.6855 8.58434V8.2916C33.6855 7.95925 33.6854 7.69641 33.6706 7.6088C33.6336 7.39374 33.5301 7.19538 33.3744 7.04115C33.2187 6.88692 33.0186 6.78442 32.8016 6.74782C32.7132 6.73266 32.4485 6.73266 32.1132 6.73266H27.847V4.12109H32.1132C32.6435 4.12109 32.9359 4.12109 33.2435 4.1729C33.9985 4.30068 34.6948 4.65748 35.2366 5.19412C35.7783 5.73075 36.1387 6.42078 36.2681 7.16904C36.3208 7.47443 36.3208 7.76381 36.3208 8.28991V11.4187C36.3208 11.833 36.4867 12.2304 36.7821 12.5235C37.0775 12.8166 37.4781 12.9814 37.896 12.9819H40.7957V15.5934H37.896C36.8567 15.5943 35.8541 15.2126 35.0826 14.5223C34.7347 14.8988 34.3115 15.1994 33.84 15.4049C33.3685 15.6105 32.859 15.7166 32.344 15.7164ZM30.5907 10.9487C30.3061 10.9542 30.035 11.0702 29.8358 11.2717C29.6365 11.4732 29.5248 11.7442 29.5248 12.0263C29.5248 12.3085 29.6365 12.5795 29.8358 12.781C30.035 12.9825 30.3061 13.0985 30.5907 13.104H32.344C32.6286 13.0985 32.8996 12.9825 33.0989 12.781C33.2982 12.5795 33.4098 12.3085 33.4098 12.0263C33.4098 11.7442 33.2982 11.4732 33.0989 11.2717C32.8996 11.0702 32.6286 10.9542 32.344 10.9487H30.5907Z" fill="#242424"/>
<circle cx="43.9888" cy="9.5" r="1.5" fill="black"/>
<path d="M63.7638 2.47628V16.71H57.4449V2.47628H63.7638ZM49.1718 7.15028C49.2695 6.75943 49.3618 6.33057 49.4486 5.86371C49.5463 5.386 49.6332 4.90828 49.7092 4.43057C49.7852 3.95286 49.8503 3.49143 49.9046 3.04628C49.9698 2.60114 50.0186 2.21571 50.0512 1.89H51.8263L51.696 2.99743H56.598V4.80514H54.432C54.4103 5.31543 54.3778 5.83114 54.3343 6.35228C54.2909 6.86257 54.2366 7.37828 54.1715 7.89943H56.8423V9.756H53.8783L53.7643 10.4237H55.0998C55.4472 11.466 55.762 12.5137 56.0443 13.5669C56.3375 14.62 56.6089 15.6677 56.8586 16.71H54.8555C54.66 15.9066 54.4483 15.0706 54.2203 14.202C54.0032 13.3334 53.7698 12.4594 53.52 11.58C53.2703 12.644 52.9935 13.6211 52.6895 14.5114C52.3855 15.3909 52.076 16.1237 51.7612 16.71H49.302C49.5409 16.33 49.7743 15.8849 50.0023 15.3746C50.2412 14.8643 50.4638 14.316 50.67 13.7297C50.8872 13.1326 51.088 12.4974 51.2726 11.8243C51.4572 11.1511 51.6255 10.4617 51.7775 9.756H49.3183V7.89943H52.1195C52.2606 6.87886 52.3583 5.84743 52.4126 4.80514H51.4355C51.3052 5.67371 51.164 6.45543 51.012 7.15028H49.1718ZM59.448 14.7883H61.728V4.36543H59.448V14.7883ZM79.7563 2.18314V10.44H71.1738V2.18314H79.7563ZM69.024 5.17971V14.8209H70.164V16.71H66.8255V6.93857H65.5878V5.17971H69.024ZM73.2746 8.616H77.6555V4.00714H73.2746V8.616ZM70.3106 16.71C70.506 16.3734 70.7015 15.9717 70.8969 15.5049C71.1032 15.038 71.2878 14.5603 71.4506 14.0717C71.6243 13.5723 71.7763 13.0783 71.9066 12.5897C72.0369 12.0903 72.1292 11.6451 72.1835 11.2543H74.4146C74.3603 11.6777 74.2735 12.1446 74.154 12.6549C74.0455 13.1543 73.9152 13.6537 73.7632 14.1531C73.6112 14.6417 73.4483 15.1086 73.2746 15.5537C73.1009 15.9989 72.9272 16.3843 72.7535 16.71H70.3106ZM77.9812 16.71C77.916 16.3626 77.8238 15.9609 77.7043 15.5049C77.5958 15.0489 77.4763 14.5766 77.346 14.088C77.2158 13.5994 77.08 13.1109 76.9389 12.6223C76.7978 12.1337 76.6566 11.6777 76.5155 11.2543H78.6652C78.8063 11.6451 78.9529 12.0794 79.1049 12.5571C79.2678 13.024 79.4198 13.5017 79.5609 13.9903C79.7129 14.4789 79.8486 14.9566 79.968 15.4234C80.0983 15.8903 80.2069 16.3191 80.2938 16.71H77.9812ZM67.1349 4.512C67.1023 4.31657 67.0589 4.10486 67.0046 3.87686C66.9503 3.638 66.8906 3.40457 66.8255 3.17657C66.7603 2.93771 66.6952 2.70971 66.63 2.49257C66.5649 2.26457 66.4998 2.06371 66.4346 1.89H68.5029C68.568 2.03114 68.6332 2.21028 68.6983 2.42743C68.7743 2.63371 68.8449 2.86171 68.91 3.11143C68.986 3.35028 69.0566 3.59457 69.1218 3.84428C69.1869 4.08314 69.2412 4.30571 69.2846 4.512H67.1349ZM81.7269 9.70714C81.9766 8.96886 82.21 8.14914 82.4272 7.248C82.6443 6.336 82.8343 5.40229 82.9972 4.44686H81.8572V2.688H87.5898V4.44686H84.8538C84.7995 4.82686 84.7398 5.20686 84.6746 5.58686C84.6203 5.956 84.5552 6.33057 84.4792 6.71057H87.5572V16.1889H82.7366V9.70714H81.7269ZM92.736 16.71C93.0943 16.2974 93.3983 15.7383 93.648 15.0326C93.8978 14.3377 94.0226 13.5723 94.0226 12.7363V10.2283H88.5343L88.7623 4.78886H90.7655L90.6026 8.388H93.0943L93.3875 4.03971H88.2249V2.21571H95.5046L95.1789 8.388H96.0583V12.8503C96.0583 13.6211 95.9878 14.3377 95.8466 15C95.7163 15.6731 95.5426 16.2431 95.3255 16.71H92.736ZM93.4363 11.9057V13.6971H88.2249V11.9057H93.4363ZM84.5118 14.4626H85.7983V8.45314H84.5118V14.4626Z" fill="black"/>
</svg>
