<svg viewBox="0 0 146 132" fill="none" xmlns="http://www.w3.org/2000/svg">
<rect x="9.31494" y="33.8198" width="48.4455" height="73.9646" fill="#D3DCD6"/>
<path d="M15.8945 33.8179H64.1417V107.799H15.8945V33.8179Z" fill="url(#paint0_linear_273_69626)"/>
<rect x="52.3037" y="23.7231" width="35.3202" height="35.0435" fill="url(#paint1_linear_273_69626)"/>
<rect x="46.6265" y="45.5249" width="89.8859" height="39.7989" rx="19.8995" fill="url(#paint2_linear_273_69626)"/>
<path d="M80.6096 72.3896H100.74L117.208 108.281H64.1416L80.6096 72.3896Z" fill="url(#paint3_linear_273_69626)"/>
<path d="M104.784 74.6513H102.752C101.615 74.6392 100.53 74.1796 99.7302 73.3725C98.9308 72.5653 98.4824 71.4757 98.4824 70.3402C98.4824 69.2047 98.9308 68.1151 99.7302 67.3079C100.53 66.5007 101.615 66.0412 102.752 66.029H104.784C105.316 66.0286 105.843 66.1268 106.339 66.3189V65.9769C106.339 65.5886 106.339 65.2815 106.322 65.1792C106.279 64.9279 106.159 64.6962 105.979 64.516C105.798 64.3358 105.566 64.2161 105.315 64.1733C105.212 64.1556 104.905 64.1556 104.517 64.1556H99.5713V61.1045H104.517C105.132 61.1045 105.47 61.1045 105.827 61.165C106.702 61.3143 107.509 61.7312 108.137 62.3581C108.765 62.9851 109.183 63.7912 109.333 64.6654C109.394 65.0222 109.394 65.3603 109.394 65.9749V69.6303C109.394 70.1143 109.587 70.5785 109.929 70.921C110.272 71.2634 110.736 71.456 111.22 71.4565H114.582V74.5076H111.22C110.016 74.5086 108.853 74.0626 107.959 73.2562C107.556 73.696 107.065 74.0472 106.519 74.2874C105.972 74.5276 105.381 74.6515 104.784 74.6513ZM102.752 69.0811C102.422 69.0876 102.108 69.2232 101.877 69.4586C101.646 69.694 101.516 70.0105 101.516 70.3402C101.516 70.6699 101.646 70.9864 101.877 71.2218C102.108 71.4572 102.422 71.5927 102.752 71.5993H104.784C105.114 71.5927 105.428 71.4572 105.659 71.2218C105.89 70.9864 106.02 70.6699 106.02 70.3402C106.02 70.0105 105.89 69.694 105.659 69.4586C105.428 69.2232 105.114 69.0876 104.784 69.0811H102.752Z" fill="#66896D"/>
<path d="M97.4919 74.5672H94.4727V66.0426C94.4727 65.6675 94.3651 65.1171 94.0622 64.7016C93.7774 64.3119 93.3805 64.1277 92.8137 64.1277C92.2469 64.1277 91.8568 64.3138 91.569 64.7123C91.2632 65.1361 91.1547 65.6933 91.1547 66.0421V74.5672H88.1355V66.0426C88.1355 65.726 87.9865 65.1877 87.6593 64.7551C87.186 64.1277 86.6518 64.1277 86.4765 64.1277C85.9759 64.1277 85.5849 64.3182 85.2796 64.7123C84.9884 65.0956 84.8261 65.5613 84.816 66.0426V74.5672H81.7969V66.0426C81.8051 64.8871 82.1915 63.766 82.8969 62.851C83.7734 61.7248 85.0449 61.1047 86.476 61.1047C87.0548 61.0997 87.6287 61.2106 88.1639 61.431C88.6992 61.6513 89.1849 61.9766 89.5925 62.3877C90.4257 61.5552 91.5457 61.1047 92.8147 61.1047C94.3422 61.1047 95.6531 61.7501 96.5053 62.9221C97.1335 63.7863 97.4938 64.9227 97.4938 66.0397L97.4919 74.5672Z" fill="#66896D"/>
<path d="M80.6174 74.5589H77.7514C76.6321 74.5576 75.559 74.1107 74.7675 73.3162C73.976 72.5217 73.5308 71.4445 73.5295 70.3209V65.3342C73.5295 65.0112 73.4017 64.7015 73.1742 64.4731C72.9467 64.2447 72.6381 64.1164 72.3163 64.1164H68.5278V61.0962H72.3163C73.4357 61.0975 74.5088 61.5444 75.3002 62.3389C76.0917 63.1334 76.5369 64.2106 76.5382 65.3342V70.3209C76.5382 70.6439 76.666 70.9537 76.8935 71.1821C77.1211 71.4104 77.4296 71.5387 77.7514 71.5387H80.6174V74.5589Z" fill="#66896D"/>
<path d="M80.6266 56.6548H76.2358V61.0563H80.6266V56.6548Z" fill="#66896D"/>
<defs>
<linearGradient id="paint0_linear_273_69626" x1="61.9486" y1="94.2248" x2="25.8406" y2="24.1023" gradientUnits="userSpaceOnUse">
<stop stop-color="#EEF3EE"/>
<stop offset="1" stop-color="#DAE1DC"/>
</linearGradient>
<linearGradient id="paint1_linear_273_69626" x1="53.1766" y1="59.1831" x2="80.2799" y2="11.1598" gradientUnits="userSpaceOnUse">
<stop stop-color="#EEF3EE"/>
<stop offset="1" stop-color="#FFC6D6"/>
</linearGradient>
<linearGradient id="paint2_linear_273_69626" x1="117.964" y1="78.7121" x2="117.964" y2="31.2924" gradientUnits="userSpaceOnUse">
<stop stop-color="white"/>
<stop offset="1" stop-color="#A0F2B7"/>
</linearGradient>
<linearGradient id="paint3_linear_273_69626" x1="109.099" y1="115.154" x2="106.258" y2="59.5544" gradientUnits="userSpaceOnUse">
<stop stop-color="white"/>
<stop offset="1" stop-color="#E6F881"/>
</linearGradient>
</defs>
</svg>
