<svg viewBox="0 0 40 40" fill="none" xmlns="http://www.w3.org/2000/svg">
<g filter="url(#filter0_d_2492_368057)">
<rect x="4" y="3.5" width="32" height="32" rx="16" fill="#B9B9B9"/>
<rect x="4" y="3.5" width="32" height="32" rx="16" fill="url(#paint0_linear_2492_368057)"/>
<rect x="3.25" y="2.75" width="33.5" height="33.5" rx="16.75" stroke="white" stroke-width="1.5" stroke-linejoin="round"/>
<path d="M8.03516 29.1494L8.16121 29.2081L20.625 21.1356L19.3575 19.6367L8.03516 29.1494Z" fill="#CAC7C8"/>
<path d="M8.00173 29.0172L8.03626 29.1512L19.3586 19.6384L18.1585 18.1445L8 29.0172H8.00173Z" fill="#FBFFFC"/>
<path d="M20.6246 21.1353L19.3555 19.6364L30.7659 10.0566L30.8125 10.1789L20.6246 21.1353Z" fill="url(#paint1_linear_2492_368057)"/>
<path d="M18.1602 18.1444L19.3585 19.6383L30.769 10.0586L30.6567 10L18.1602 18.1444Z" fill="#FB645C"/>
<path d="M7.601 28.0168L8.5312 27.3825ZM5.20441 22.107L7.51509 21.7009ZM5.05037 20.8414L6.17016 20.7525ZM5.19256 17.0567L7.50324 17.4657ZM5.07406 18.3637L6.18793 18.4763ZM5.83244 14.6086L8.04536 15.4177ZM6.92853 12.3057L8.96075 13.4794ZM8.40678 10.2311L10.205 11.7397ZM10.2198 8.45874L11.7276 10.2578ZM12.3112 7.00056L13.4873 9.03371ZM14.5834 5.91285L15.3862 8.11494ZM17.0511 5.26378L17.4569 7.57553ZM22.0842 5.2371L21.6754 7.54886ZM24.5845 5.88914L23.7787 8.08826ZM26.8893 6.97684L25.7162 9.01ZM28.9689 8.44985L27.4521 10.2489ZM32.2453 12.3117L30.2101 13.4853ZM33.3059 14.6353L31.0989 15.4355ZM33.9546 17.0952L31.638 17.5042ZM33.9517 22.184L31.6351 21.7721ZM33.294 24.6469L31.09 23.8437ZM32.2157 26.9468L30.1805 25.7761ZM30.7463 29.0304L28.9482 27.5277ZM28.9333 30.8472L27.4225 29.0452ZM26.8448 32.3024L25.6599 30.2633ZM24.5134 33.3753L23.7136 31.1732ZM22.0517 34.0214L21.6458 31.7156ZM16.9711 34.0125L17.3859 31.683ZM14.5123 33.3368L15.3181 31.1228ZM12.2076 32.2283L13.3836 30.1922ZM10.1368 30.7553L11.6417 28.9681ZM9.19478 29.8958L10.0094 29.1015ZM11.147 31.5407L11.7987 30.6219ZM13.3392 32.827L13.831 31.8045ZM15.7358 33.7221L16.038 32.6254ZM18.2657 34.2022L18.3931 33.07ZM20.7867 34.1963L20.6949 33.0582ZM23.3048 33.7487L23.0174 32.6551ZM25.7014 32.8774L25.2333 31.846ZM27.9143 31.6207L27.2744 30.6782ZM29.8754 29.9729L29.0815 29.1637ZM31.5225 28.0227L30.6012 27.3707ZM32.7993 25.8295L31.7713 25.3345ZM33.6732 23.4348L32.5771 23.1295ZM34.1087 20.9185L32.9889 20.8088ZM34.1146 18.3667L32.9859 18.4556ZM33.6821 15.8475L32.586 16.1349ZM32.823 13.4498L31.7891 13.9269ZM31.484 11.224L30.536 11.876ZM29.908 9.3212L29.1022 10.1214ZM27.9646 7.66741L27.304 8.59211ZM25.7606 6.38409L25.2688 7.40363ZM23.3285 5.53052L23.0263 6.60637ZM20.8282 5.0652L20.7156 6.19441ZM18.319 5.10966L18.402 6.2359ZM15.798 5.54237L16.0794 6.63304ZM13.4429 6.41966L13.9198 7.44512ZM11.2359 7.68816L11.8817 8.62471ZM9.26884 9.29749L10.0628 10.0977ZM7.61877 11.2388L8.53712 11.8997ZM6.33309 13.432L7.34624 13.924ZM5.47991 15.8089L6.57601 16.1201ZM5.47695 23.3488L6.57304 23.0791ZM5.85021 24.5699L8.0661 23.7637ZM6.33012 25.7584L7.36697 25.2812ZM6.91372 26.8905L8.9489 25.7198ZM5 19.6381L7.35808 19.6411ZM19.5514 7.35918V5ZM19.5573 34.2644L19.5603 31.9112ZM34.1739 19.6411L31.8187 19.6381Z" fill="black"/>
<path d="M7.601 28.0168L8.5312 27.3825M5.20441 22.107L7.51509 21.7009M5.05037 20.8414L6.17016 20.7525M5.19256 17.0567L7.50324 17.4657M5.07406 18.3637L6.18793 18.4763M5.83244 14.6086L8.04536 15.4177M6.92853 12.3057L8.96075 13.4794M8.40678 10.2311L10.205 11.7397M10.2198 8.45874L11.7276 10.2578M12.3112 7.00056L13.4873 9.03371M14.5834 5.91285L15.3862 8.11494M17.0511 5.26378L17.4569 7.57553M22.0842 5.2371L21.6754 7.54886M24.5845 5.88914L23.7787 8.08826M26.8893 6.97684L25.7162 9.01M28.9689 8.44985L27.4521 10.2489M32.2453 12.3117L30.2101 13.4853M33.3059 14.6353L31.0989 15.4355M33.9546 17.0952L31.638 17.5042M33.9517 22.184L31.6351 21.7721M33.294 24.6469L31.09 23.8437M32.2157 26.9468L30.1805 25.7761M30.7463 29.0304L28.9482 27.5277M28.9333 30.8472L27.4225 29.0452M26.8448 32.3024L25.6599 30.2633M24.5134 33.3753L23.7136 31.1732M22.0517 34.0214L21.6458 31.7156M16.9711 34.0125L17.3859 31.683M14.5123 33.3368L15.3181 31.1228M12.2076 32.2283L13.3836 30.1922M10.1368 30.7553L11.6417 28.9681M9.19478 29.8958L10.0094 29.1015M11.147 31.5407L11.7987 30.6219M13.3392 32.827L13.831 31.8045M15.7358 33.7221L16.038 32.6254M18.2657 34.2022L18.3931 33.07M20.7867 34.1963L20.6949 33.0582M23.3048 33.7487L23.0174 32.6551M25.7014 32.8774L25.2333 31.846M27.9143 31.6207L27.2744 30.6782M29.8754 29.9729L29.0815 29.1637M31.5225 28.0227L30.6012 27.3707M32.7993 25.8295L31.7713 25.3345M33.6732 23.4348L32.5771 23.1295M34.1087 20.9185L32.9889 20.8088M34.1146 18.3667L32.9859 18.4556M33.6821 15.8475L32.586 16.1349M32.823 13.4498L31.7891 13.9269M31.484 11.224L30.536 11.876M29.908 9.3212L29.1022 10.1214M27.9646 7.66741L27.304 8.59211M25.7606 6.38409L25.2688 7.40363M23.3285 5.53052L23.0263 6.60637M20.8282 5.0652L20.7156 6.19441M18.319 5.10966L18.402 6.2359M15.798 5.54237L16.0794 6.63304M13.4429 6.41966L13.9198 7.44512M11.2359 7.68816L11.8817 8.62471M9.26884 9.29749L10.0628 10.0977M7.61877 11.2388L8.53712 11.8997M6.33309 13.432L7.34624 13.924M5.47991 15.8089L6.57601 16.1201M5.47695 23.3488L6.57304 23.0791M5.85021 24.5699L8.0661 23.7637M6.33012 25.7584L7.36697 25.2812M6.91372 26.8905L8.9489 25.7198M5 19.6381L7.35808 19.6411M19.5514 7.35918V5M19.5573 34.2644L19.5603 31.9112M34.1739 19.6411L31.8187 19.6381" stroke="white" stroke-width="0.394001" stroke-miterlimit="1" stroke-linecap="round"/>
</g>
<defs>
<filter id="filter0_d_2492_368057" x="0.951524" y="0.451524" width="38.097" height="38.097" filterUnits="userSpaceOnUse" color-interpolation-filters="sRGB">
<feFlood flood-opacity="0" result="BackgroundImageFix"/>
<feColorMatrix in="SourceAlpha" type="matrix" values="0 0 0 0 0 0 0 0 0 0 0 0 0 0 0 0 0 0 127 0" result="hardAlpha"/>
<feOffset/>
<feGaussianBlur stdDeviation="0.774238"/>
<feComposite in2="hardAlpha" operator="out"/>
<feColorMatrix type="matrix" values="0 0 0 0 0 0 0 0 0 0 0 0 0 0 0 0 0 0 0.25 0"/>
<feBlend mode="normal" in2="BackgroundImageFix" result="effect1_dropShadow_2492_368057"/>
<feBlend mode="normal" in="SourceGraphic" in2="effect1_dropShadow_2492_368057" result="shape"/>
</filter>
<linearGradient id="paint0_linear_2492_368057" x1="20" y1="3.5" x2="20" y2="35.5" gradientUnits="userSpaceOnUse">
<stop stop-color="#1CCAFB"/>
<stop offset="1" stop-color="#1D6EF2"/>
</linearGradient>
<linearGradient id="paint1_linear_2492_368057" x1="1837.59" y1="1081.47" x2="2032.4" y2="884.599" gradientUnits="userSpaceOnUse">
<stop stop-color="#C72E24"/>
<stop offset="1" stop-color="#FD3B2F"/>
</linearGradient>
</defs>
</svg>
