<svg viewBox="0 0 89 13" fill="none" xmlns="http://www.w3.org/2000/svg">
<path d="M1.3213 7.468C1.3213 7.244 1.4333 7.132 1.6573 7.132H11.4013C11.6253 7.132 11.7373 7.244 11.7373 7.468V12.466C11.7373 12.69 11.6253 12.802 11.4013 12.802H1.6573C1.4333 12.802 1.3213 12.69 1.3213 12.466V7.468ZM10.6033 8.168H2.4553V11.766H10.6033V8.168ZM10.9953 9.456C11.1073 9.456 11.1633 9.512 11.1633 9.624V10.282C11.1633 10.394 11.1073 10.45 10.9953 10.45H2.0633C1.9513 10.45 1.8953 10.394 1.8953 10.282V9.624C1.8953 9.512 1.9513 9.456 2.0633 9.456H10.9953ZM4.0373 1.294C4.16796 1.294 4.22863 1.35467 4.2193 1.476C4.1913 2.736 3.90663 3.828 3.3653 4.752C2.8333 5.676 1.9793 6.39 0.803297 6.894C0.737964 6.93133 0.681964 6.94067 0.635297 6.922C0.597964 6.90333 0.565297 6.86133 0.537297 6.796L0.271297 6.124C0.22463 6.012 0.261964 5.928 0.383297 5.872C1.3633 5.452 2.05863 4.88267 2.4693 4.164C2.87996 3.436 3.09463 2.54467 3.1133 1.49C3.1133 1.35933 3.17863 1.294 3.3093 1.294H4.0373ZM6.6553 3.184C6.7673 3.184 6.8233 3.24467 6.8233 3.366V4.024C6.8233 4.136 6.7673 4.192 6.6553 4.192H0.327297C0.215297 4.192 0.159297 4.136 0.159297 4.024V3.366C0.159297 3.24467 0.215297 3.184 0.327297 3.184H6.6553ZM4.5133 3.562C4.5693 3.54333 4.61596 3.54333 4.6533 3.562C4.69996 3.58067 4.7373 3.62267 4.7653 3.688C4.9333 4.20133 5.1853 4.63533 5.5213 4.99C5.8573 5.33533 6.28663 5.62933 6.8093 5.872C6.93063 5.928 6.9633 6.01667 6.9073 6.138L6.6273 6.796C6.5713 6.91733 6.48263 6.94533 6.3613 6.88C5.67063 6.572 5.09663 6.17067 4.6393 5.676C4.18196 5.18133 3.86463 4.62133 3.6873 3.996C3.64063 3.87467 3.68263 3.79533 3.8133 3.758L4.5133 3.562ZM1.4613 0.159999C1.59196 0.159999 1.6573 0.201999 1.6573 0.285999V0.789999H6.4593C6.58063 0.789999 6.6413 0.845999 6.6413 0.958V1.616C6.6413 1.73733 6.58063 1.798 6.4593 1.798H0.859297C0.75663 1.798 0.677297 1.77 0.621297 1.714C0.565297 1.658 0.537297 1.574 0.537297 1.462V0.285999C0.537297 0.201999 0.60263 0.159999 0.733297 0.159999H1.4613ZM7.4113 0.999999C7.4113 0.775999 7.52796 0.663999 7.7613 0.663999H12.1013C12.3346 0.663999 12.4513 0.775999 12.4513 0.999999V5.732C12.4513 5.956 12.3346 6.068 12.1013 6.068H7.7613C7.52796 6.068 7.4113 5.956 7.4113 5.732V0.999999ZM11.3313 1.784H8.5313V4.962H11.3313V1.784ZM26.1153 7.314C26.2086 7.314 26.2553 7.36533 26.2553 7.468V8C26.2553 8.10267 26.2086 8.154 26.1153 8.154H16.7493C16.6466 8.154 16.5953 8.10267 16.5953 8V7.468C16.5953 7.36533 16.6466 7.314 16.7493 7.314H26.1153ZM26.5073 5.662C26.61 5.662 26.6893 5.69 26.7453 5.746C26.8013 5.802 26.8293 5.87667 26.8293 5.97V9.484C26.8293 9.57733 26.8013 9.652 26.7453 9.708C26.6893 9.764 26.61 9.792 26.5073 9.792H16.2453C16.1426 9.792 16.0913 9.74067 16.0913 9.638V9.064C16.0913 8.96133 16.1426 8.91 16.2453 8.91H25.6953V6.544H16.2453C16.1426 6.544 16.0913 6.49267 16.0913 6.39V5.816C16.0913 5.71333 16.1426 5.662 16.2453 5.662H26.5073ZM19.0173 0.229999C19.148 0.229999 19.2133 0.295333 19.2133 0.426V5.256C19.2133 5.38667 19.148 5.452 19.0173 5.452H18.2893C18.168 5.452 18.1073 5.38667 18.1073 5.256V0.426C18.1073 0.295333 18.168 0.229999 18.2893 0.229999H19.0173ZM21.0053 2.442C21.0986 2.442 21.1453 2.48867 21.1453 2.582V3.128C21.1453 3.22133 21.0986 3.268 21.0053 3.268H16.1473C16.0446 3.268 15.9933 3.22133 15.9933 3.128V2.582C15.9933 2.48867 16.0446 2.442 16.1473 2.442H21.0053ZM21.1873 4.01C21.29 4.01 21.3413 4.06133 21.3413 4.164V4.738C21.3413 4.84067 21.29 4.892 21.1873 4.892H15.8533C15.7506 4.892 15.6993 4.84067 15.6993 4.738V4.164C15.6993 4.06133 15.7506 4.01 15.8533 4.01H21.1873ZM21.1873 0.818C21.29 0.818 21.3413 0.869333 21.3413 0.972V1.546C21.3413 1.64867 21.29 1.7 21.1873 1.7H15.9233C15.8206 1.7 15.7693 1.64867 15.7693 1.546V0.972C15.7693 0.869333 15.8206 0.818 15.9233 0.818H21.1873ZM25.0093 0.229999C25.1306 0.229999 25.1913 0.295333 25.1913 0.426V5.256C25.1913 5.38667 25.1306 5.452 25.0093 5.452H24.2813C24.1506 5.452 24.0853 5.38667 24.0853 5.256V0.426C24.0853 0.295333 24.1506 0.229999 24.2813 0.229999H25.0093ZM27.1513 2.442C27.254 2.442 27.3053 2.48867 27.3053 2.582V3.128C27.3053 3.22133 27.254 3.268 27.1513 3.268H22.2933C22.2 3.268 22.1533 3.22133 22.1533 3.128V2.582C22.1533 2.48867 22.2 2.442 22.2933 2.442H27.1513ZM27.4453 4.01C27.548 4.01 27.5993 4.06133 27.5993 4.164V4.738C27.5993 4.84067 27.548 4.892 27.4453 4.892H22.1113C22.0086 4.892 21.9573 4.84067 21.9573 4.738V4.164C21.9573 4.06133 22.0086 4.01 22.1113 4.01H27.4453ZM27.3753 0.818C27.478 0.818 27.5293 0.869333 27.5293 0.972V1.546C27.5293 1.64867 27.478 1.7 27.3753 1.7H22.1113C22.0086 1.7 21.9573 1.64867 21.9573 1.546V0.972C21.9573 0.869333 22.0086 0.818 22.1113 0.818H27.3753ZM19.4093 10.016C19.54 10.016 19.6053 10.0813 19.6053 10.212V11.934H24.2813V11.052C24.2813 10.9213 24.3466 10.856 24.4773 10.856H25.2053C25.336 10.856 25.4013 10.9213 25.4013 11.052V12.578C25.4013 12.6807 25.3733 12.76 25.3173 12.816C25.2706 12.872 25.1913 12.9 25.0793 12.9H18.7933C18.6906 12.9 18.6113 12.872 18.5553 12.816C18.4993 12.76 18.4713 12.6807 18.4713 12.578V10.212C18.4713 10.0813 18.5366 10.016 18.6673 10.016H19.4093ZM22.0973 9.82C22.2 9.77333 22.2793 9.80133 22.3353 9.904L22.8253 10.968C22.8813 11.0707 22.8533 11.1547 22.7413 11.22L22.0833 11.542C21.9806 11.598 21.9013 11.5747 21.8453 11.472L21.3413 10.408C21.2946 10.296 21.3226 10.212 21.4253 10.156L22.0973 9.82ZM17.0573 10.198C17.1786 10.226 17.2253 10.3053 17.1973 10.436C17.104 10.912 16.95 11.444 16.7353 12.032L16.5113 12.578C16.4646 12.6993 16.3806 12.7367 16.2593 12.69L15.5873 12.396C15.5313 12.368 15.494 12.3307 15.4753 12.284C15.4566 12.2467 15.4613 12.2 15.4893 12.144C15.7506 11.556 15.956 10.9167 16.1053 10.226C16.1333 10.0953 16.2126 10.0393 16.3433 10.058L17.0573 10.198ZM26.8993 10.072C27.0206 10.044 27.1 10.0953 27.1373 10.226C27.1746 10.4687 27.254 10.7533 27.3753 11.08C27.4313 11.2667 27.5013 11.4487 27.5853 11.626C27.6693 11.8033 27.758 11.9713 27.8513 12.13C27.8793 12.186 27.884 12.2327 27.8653 12.27C27.8466 12.3167 27.8093 12.3587 27.7533 12.396L27.1093 12.69C26.9973 12.746 26.9133 12.718 26.8573 12.606C26.6706 12.2513 26.5026 11.8873 26.3533 11.514C26.204 11.1407 26.1013 10.7813 26.0453 10.436C26.008 10.3053 26.0546 10.226 26.1853 10.198L26.8993 10.072ZM30.8053 0.929999C30.8053 0.818 30.8333 0.734 30.8893 0.677999C30.9453 0.621999 31.0293 0.593999 31.1413 0.593999H42.4113C42.5233 0.593999 42.6073 0.621999 42.6633 0.677999C42.7193 0.734 42.7473 0.818 42.7473 0.929999V12.256C42.7473 12.368 42.7193 12.452 42.6633 12.508C42.6073 12.5733 42.5233 12.606 42.4113 12.606H31.1413C31.0293 12.606 30.9453 12.5733 30.8893 12.508C30.8333 12.452 30.8053 12.368 30.8053 12.256V0.929999ZM41.6133 1.7H31.9253V11.486H41.6133V1.7ZM37.1193 2.4C37.25 2.4 37.3153 2.46533 37.3153 2.596V4.388C37.3153 5.65733 36.97 6.852 36.2793 7.972C35.598 9.08267 34.5946 9.99267 33.2693 10.702C33.1573 10.7673 33.0686 10.744 33.0033 10.632L32.6813 9.988C32.616 9.876 32.644 9.78733 32.7653 9.722C33.9226 9.09667 34.786 8.32667 35.3553 7.412C35.9246 6.49733 36.2093 5.48933 36.2093 4.388V2.596C36.2093 2.46533 36.27 2.4 36.3913 2.4H37.1193ZM37.1193 4.388C37.25 4.388 37.32 4.45333 37.3293 4.584C37.3573 5.63867 37.656 6.60933 38.2253 7.496C38.804 8.38267 39.6486 9.12467 40.7593 9.722C40.8713 9.78733 40.8993 9.876 40.8433 9.988L40.5213 10.632C40.456 10.744 40.3673 10.7673 40.2553 10.702C39.3686 10.226 38.622 9.66133 38.0153 9.008C37.418 8.34533 36.9653 7.64067 36.6573 6.894C36.3586 6.138 36.2093 5.368 36.2093 4.584C36.2093 4.45333 36.27 4.388 36.3913 4.388H37.1193ZM40.6613 4.29C40.792 4.29 40.8573 4.35533 40.8573 4.486V5.214C40.8573 5.34467 40.792 5.41 40.6613 5.41H32.8633C32.7326 5.41 32.6673 5.34467 32.6673 5.214V4.486C32.6673 4.35533 32.7326 4.29 32.8633 4.29H40.6613ZM51.3293 0.215999C51.46 0.215999 51.5253 0.281333 51.5253 0.411999V1.574H57.7273C57.83 1.574 57.9093 1.60667 57.9653 1.672C58.0306 1.728 58.0633 1.812 58.0633 1.924V4.192C58.0633 4.32267 57.998 4.388 57.8673 4.388H57.1253C56.9946 4.388 56.9293 4.32267 56.9293 4.192V2.666H50.7413C50.6293 2.666 50.5453 2.638 50.4893 2.582C50.4333 2.51667 50.4053 2.428 50.4053 2.316V0.411999C50.4053 0.281333 50.4706 0.215999 50.6013 0.215999H51.3293ZM54.2693 4.038C54.4 4.038 54.4653 4.10333 54.4653 4.234V12.508C54.4653 12.62 54.4373 12.704 54.3813 12.76C54.3253 12.816 54.2413 12.844 54.1293 12.844H52.1413C52.0106 12.844 51.9453 12.7787 51.9453 12.648V11.92C51.9453 11.7893 52.0106 11.724 52.1413 11.724H53.3453V4.234C53.3453 4.10333 53.4106 4.038 53.5413 4.038H54.2693ZM51.0633 5.536C51.194 5.54533 51.2546 5.61067 51.2453 5.732C51.1893 6.80533 51.1006 7.81333 50.9793 8.756C50.858 9.68933 50.7086 10.5247 50.5313 11.262C50.5033 11.3927 50.4286 11.444 50.3073 11.416L49.5933 11.262C49.472 11.234 49.4253 11.1547 49.4533 11.024C49.7986 9.57733 50.032 7.804 50.1533 5.704C50.1533 5.57333 50.2186 5.508 50.3493 5.508L51.0633 5.536ZM57.3913 5.522C57.5126 5.522 57.578 5.58267 57.5873 5.704C57.634 6.74933 57.7133 7.72 57.8253 8.616C57.9466 9.512 58.1006 10.3147 58.2873 11.024C58.3153 11.1547 58.264 11.234 58.1333 11.262L57.4333 11.416C57.3026 11.444 57.228 11.3927 57.2093 11.262C56.836 9.666 56.598 7.82733 56.4953 5.746C56.486 5.606 56.5466 5.536 56.6773 5.536L57.3913 5.522ZM47.8013 4.738C47.932 4.738 47.9973 4.80333 47.9973 4.934V12.788C47.9973 12.9187 47.932 12.984 47.8013 12.984H47.0733C46.9426 12.984 46.8773 12.9187 46.8773 12.788V4.934C46.8773 4.80333 46.9426 4.738 47.0733 4.738H47.8013ZM48.9073 0.44C48.9726 0.467999 49.0146 0.500666 49.0333 0.537999C49.0613 0.565999 49.066 0.612666 49.0473 0.677999C48.2166 3.18867 47.1993 5.57333 45.9953 7.832C45.9673 7.89733 45.93 7.93467 45.8833 7.944C45.8366 7.944 45.79 7.92067 45.7433 7.874L45.2113 7.188C45.1646 7.132 45.1366 7.08067 45.1273 7.034C45.1273 6.978 45.1413 6.91733 45.1693 6.852C45.7293 5.82533 46.2426 4.766 46.7093 3.674C47.176 2.582 47.5913 1.476 47.9553 0.355999C47.9833 0.290666 48.016 0.248666 48.0533 0.229999C48.1 0.201999 48.1513 0.201999 48.2073 0.229999L48.9073 0.44ZM72.9873 0.692C73.118 0.692 73.1833 0.757333 73.1833 0.888V1.616C73.1833 1.74667 73.118 1.812 72.9873 1.812H61.0313C60.9006 1.812 60.8353 1.74667 60.8353 1.616V0.888C60.8353 0.757333 60.9006 0.692 61.0313 0.692H72.9873ZM72.3713 3.744C72.5953 3.744 72.7073 3.86067 72.7073 4.094V12.522C72.7073 12.7553 72.5953 12.872 72.3713 12.872H70.7053C70.5746 12.872 70.5093 12.8067 70.5093 12.676V11.948C70.5093 11.8173 70.5746 11.752 70.7053 11.752H71.6013V4.864H62.4173V12.746C62.4173 12.8767 62.3566 12.942 62.2353 12.942H61.5073C61.3766 12.942 61.3113 12.8767 61.3113 12.746V4.094C61.3113 3.86067 61.4233 3.744 61.6473 3.744H72.3713ZM67.3733 1.266C67.504 1.266 67.5693 1.33133 67.5693 1.462V4.108C67.5693 4.23867 67.504 4.304 67.3733 4.304H66.6453C66.5146 4.304 66.4493 4.23867 66.4493 4.108V1.462C66.4493 1.33133 66.5146 1.266 66.6453 1.266H67.3733ZM65.7073 4.304C65.838 4.304 65.9033 4.36933 65.9033 4.5V12.368C65.9033 12.4987 65.838 12.564 65.7073 12.564H64.9793C64.858 12.564 64.7973 12.4987 64.7973 12.368V4.5C64.7973 4.36933 64.858 4.304 64.9793 4.304H65.7073ZM69.0393 4.304C69.1606 4.304 69.2213 4.36933 69.2213 4.5V12.368C69.2213 12.4987 69.1606 12.564 69.0393 12.564H68.3113C68.1806 12.564 68.1153 12.4987 68.1153 12.368V4.5C68.1153 4.36933 68.1806 4.304 68.3113 4.304H69.0393ZM77.5373 0.972C77.668 0.972 77.7333 1.03733 77.7333 1.168V2.47H87.7293C87.86 2.47 87.9253 2.53533 87.9253 2.666V3.394C87.9253 3.52467 87.86 3.59 87.7293 3.59H76.9493C76.8373 3.59 76.7486 3.562 76.6833 3.506C76.6273 3.45 76.5993 3.366 76.5993 3.254V1.168C76.5993 1.03733 76.6646 0.972 76.7953 0.972H77.5373ZM87.2393 6.796C87.37 6.796 87.4353 6.86133 87.4353 6.992V7.72C87.4353 7.85067 87.37 7.916 87.2393 7.916H77.0193C76.8886 7.916 76.8233 7.85067 76.8233 7.72V6.992C76.8233 6.86133 76.8886 6.796 77.0193 6.796H87.2393ZM88.1913 11.43C88.322 11.43 88.3873 11.4953 88.3873 11.626V12.368C88.3873 12.4987 88.322 12.564 88.1913 12.564H76.0673C75.9366 12.564 75.8713 12.4987 75.8713 12.368V11.626C75.8713 11.4953 75.9366 11.43 76.0673 11.43H88.1913ZM82.5493 0.201999C82.68 0.201999 82.7453 0.267333 82.7453 0.397999V11.85C82.7453 11.9807 82.68 12.046 82.5493 12.046H81.7933C81.6626 12.046 81.5973 11.9807 81.5973 11.85V0.397999C81.5973 0.267333 81.6626 0.201999 81.7933 0.201999H82.5493Z" fill="currentColor"/>
</svg>
