<svg viewBox="0 0 16 16" fill="none" xmlns="http://www.w3.org/2000/svg">
  <g clip-path="url(#clip0_1331_70716)">
    <path
      fill-rule="evenodd"
      clip-rule="evenodd"
      d="M3.0636 12.94C4.34152 14.218 6.06767 14.9468 7.87476 14.9714L8.00103 14.9714C11.6435 14.9714 14.6851 12.1525 14.9385 8.54044V8.35021C15.0022 7.57206 14.7092 6.86046 14.1942 6.31324C13.6445 5.73125 12.8696 5.40886 12.0635 5.40886C11.9677 5.40886 11.889 5.40812 11.8119 5.38242L11.8042 5.37985L11.7962 5.37865C11.2119 5.29101 10.7126 4.79173 10.625 4.20745L10.6238 4.19942L10.6212 4.19171C10.5955 4.11462 10.5948 4.03597 10.5948 3.94011C10.5948 3.13409 10.2723 2.35899 9.69029 1.80934C9.14044 1.29184 8.42884 1.03337 7.65534 1.06511L7.46978 1.06483L7.46253 1.06539C3.78816 1.35047 0.969029 4.45454 1.03229 8.12905C1.05693 9.93608 1.78572 11.6622 3.0636 12.94ZM14.126 6.37761C14.626 6.90886 14.9073 7.59636 14.8448 8.34636V8.53386C14.5948 12.0964 11.5948 14.8776 8.00103 14.8776H7.87603C6.09459 14.8534 4.39287 14.1354 3.13248 12.8763C4.39265 14.134 6.09343 14.8512 7.87384 14.8754H7.99884C11.5926 14.8754 14.5926 12.0942 14.8426 8.53166V8.34416C14.9051 7.59416 14.6238 6.90666 14.1238 6.37541C14.1066 6.35711 14.089 6.33908 14.0713 6.32131C14.0898 6.33979 14.108 6.35856 14.126 6.37761ZM10.9572 5.04475C10.735 4.82221 10.5791 4.53347 10.5323 4.22136C10.501 4.12761 10.501 4.03386 10.501 3.94012C10.501 3.18428 10.2085 2.45769 9.68014 1.93015C10.2071 2.45751 10.4988 3.18313 10.4988 3.93791V3.93792C10.4988 4.03167 10.4988 4.12542 10.5301 4.21916C10.5771 4.5323 10.7339 4.82191 10.9572 5.04475ZM3.13248 12.8763C3.13162 12.8755 3.13075 12.8746 3.12989 12.8738C3.13075 12.8746 3.13162 12.8755 3.13248 12.8763ZM7.57057 2.50234L7.58896 2.50096L7.60546 2.49271C7.64543 2.47273 7.68617 2.47136 7.75103 2.47136H7.81353C8.12826 2.47136 8.44987 2.61455 8.71793 2.85209C8.98033 3.11565 9.15728 3.5282 9.15728 3.94011V3.94135C9.15728 4.09756 9.15728 4.26316 9.22188 4.49178C9.41779 5.68482 10.3846 6.65058 11.5781 6.84488C11.7431 6.87762 11.9373 6.87761 12.09 6.87761H12.0901H12.0948C12.5121 6.87761 12.9216 7.02686 13.1811 7.31508C13.4177 7.58132 13.561 7.93179 13.5323 8.27605V8.43607C13.2845 11.2915 10.7955 13.5643 7.90873 13.5339C4.89708 13.4722 2.53123 11.0755 2.46976 8.09434C2.40834 5.23839 4.71352 2.71739 7.57057 2.50234ZM8.78223 2.78381C8.78152 2.78309 8.7808 2.78238 8.78009 2.78166C8.49884 2.53166 8.15509 2.37541 7.81134 2.37541H7.74884C7.68634 2.37541 7.62384 2.37541 7.56134 2.40666C4.65509 2.62541 2.31134 5.18791 2.37384 8.09416C2.40519 9.61479 3.02635 10.986 4.02429 11.9829C3.02764 10.9862 2.40736 9.61587 2.37603 8.09636C2.31353 5.19011 4.65728 2.62761 7.56353 2.40886C7.62603 2.37761 7.68853 2.37761 7.75103 2.37761H7.81353C8.15726 2.37761 8.50099 2.53384 8.78223 2.78381ZM11.5948 6.75261C11.0162 6.65879 10.4924 6.37719 10.09 5.97437C10.4922 6.37602 11.0151 6.65676 11.5926 6.75041C11.7488 6.78166 11.9363 6.78166 12.0926 6.78166C12.5084 6.78166 12.9243 6.92282 13.2059 7.20514C12.9243 6.92429 12.5095 6.78386 12.0948 6.78386C11.9385 6.78386 11.751 6.78386 11.5948 6.75261ZM5.40728 5.19011C5.40728 5.92939 6.01176 6.53386 6.75103 6.53386C7.49031 6.53386 8.09478 5.92939 8.09478 5.19011C8.09478 4.45083 7.49031 3.84636 6.75103 3.84636C6.01176 3.84636 5.40728 4.45083 5.40728 5.19011ZM7.46978 10.8151C7.46978 10.2321 7.02156 9.78386 6.43853 9.78386C5.85551 9.78386 5.40728 10.2321 5.40728 10.8151C5.40728 11.3981 5.85551 11.8464 6.43853 11.8464C7.02156 11.8464 7.46978 11.3981 7.46978 10.8151ZM3.84478 8.15886C3.84478 8.74189 4.29301 9.19011 4.87603 9.19011C5.45906 9.19011 5.90728 8.74189 5.90728 8.15886C5.90728 7.57583 5.45906 7.12761 4.87603 7.12761C4.29301 7.12761 3.84478 7.57583 3.84478 8.15886ZM5.86732 6.07202C6.09395 6.29911 6.40683 6.44011 6.75103 6.44011C7.43853 6.44011 8.00103 5.87761 8.00103 5.19011C8.00103 4.84569 7.85986 4.53265 7.63253 4.30598C7.85857 4.53247 7.99884 4.84461 7.99884 5.18791C7.99884 5.87541 7.43634 6.43791 6.74884 6.43791C6.40574 6.43791 6.09377 6.29782 5.86732 6.07202ZM7.10519 10.1458C7.27394 10.3139 7.37603 10.5488 7.37603 10.8151C7.37603 11.3464 6.96978 11.7526 6.43853 11.7526C6.17244 11.7526 5.9377 11.6507 5.76967 11.4822C5.93755 11.6494 6.1714 11.7504 6.43634 11.7504C6.96759 11.7504 7.37384 11.3442 7.37384 10.8129C7.37384 10.5478 7.27263 10.3137 7.10519 10.1458ZM5.54282 7.48971C5.71018 7.65761 5.81134 7.89158 5.81134 8.15666C5.81134 8.68791 5.40509 9.09416 4.87384 9.09416C4.60887 9.09416 4.37499 8.9931 4.20711 8.82588C4.37515 8.99441 4.60991 9.09636 4.87603 9.09636C5.40728 9.09636 5.81353 8.69011 5.81353 8.15886C5.81353 7.89261 5.7115 7.65776 5.54282 7.48971Z"
      fill="currentColor"
    />
  </g>
  <defs>
    <clipPath id="clip0_1331_70716">
      <rect width="16" height="16" fill="white" />
    </clipPath>
  </defs>
</svg>
