<svg viewBox="0 0 24 24" fill="none" xmlns="http://www.w3.org/2000/svg">
<g clip-path="url(#clip0_1284_120584)">
<mask id="path-1-inside-1_1284_120584" fill="white">
<path fill-rule="evenodd" clip-rule="evenodd" d="M15.8436 3.99863C15.5784 3.99863 15.324 3.89327 15.1365 3.70574L12.7073 1.27654C12.3168 0.886012 11.6836 0.886011 11.2931 1.27654L8.86388 3.70574C8.67635 3.89327 8.42199 3.99863 8.15678 3.99863H4.99873C4.44644 3.99863 3.99873 4.44634 3.99873 4.99863V8.15668C3.99873 8.4219 3.89337 8.67625 3.70583 8.86379L1.27678 11.2928C0.886256 11.6834 0.886256 12.3165 1.27678 12.7071L3.70583 15.1361C3.89337 15.3236 3.99873 15.578 3.99873 15.8432V19.0014C3.99873 19.5536 4.44644 20.0014 4.99873 20.0014H8.15687C8.42208 20.0014 8.67644 20.1067 8.86397 20.2942L11.2931 22.7234C11.6836 23.1139 12.3168 23.1139 12.7073 22.7234L15.1364 20.2942C15.3239 20.1067 15.5783 20.0014 15.8435 20.0014H19.0015C19.5537 20.0014 20.0015 19.5536 20.0015 19.0014V15.8434C20.0015 15.5782 20.1068 15.3238 20.2943 15.1363L22.7236 12.7071C23.1141 12.3165 23.1141 11.6834 22.7236 11.2928L20.2943 8.86358C20.1068 8.67605 20.0015 8.42169 20.0015 8.15648V4.99863C20.0015 4.44634 19.5537 3.99863 19.0015 3.99863H15.8436Z"/>
</mask>
<path fill-rule="evenodd" clip-rule="evenodd" d="M15.8436 3.99863C15.5784 3.99863 15.324 3.89327 15.1365 3.70574L12.7073 1.27654C12.3168 0.886012 11.6836 0.886011 11.2931 1.27654L8.86388 3.70574C8.67635 3.89327 8.42199 3.99863 8.15678 3.99863H4.99873C4.44644 3.99863 3.99873 4.44634 3.99873 4.99863V8.15668C3.99873 8.4219 3.89337 8.67625 3.70583 8.86379L1.27678 11.2928C0.886256 11.6834 0.886256 12.3165 1.27678 12.7071L3.70583 15.1361C3.89337 15.3236 3.99873 15.578 3.99873 15.8432V19.0014C3.99873 19.5536 4.44644 20.0014 4.99873 20.0014H8.15687C8.42208 20.0014 8.67644 20.1067 8.86397 20.2942L11.2931 22.7234C11.6836 23.1139 12.3168 23.1139 12.7073 22.7234L15.1364 20.2942C15.3239 20.1067 15.5783 20.0014 15.8435 20.0014H19.0015C19.5537 20.0014 20.0015 19.5536 20.0015 19.0014V15.8434C20.0015 15.5782 20.1068 15.3238 20.2943 15.1363L22.7236 12.7071C23.1141 12.3165 23.1141 11.6834 22.7236 11.2928L20.2943 8.86358C20.1068 8.67605 20.0015 8.42169 20.0015 8.15648V4.99863C20.0015 4.44634 19.5537 3.99863 19.0015 3.99863H15.8436Z" fill="#FFCC1A"/>
<path d="M20.2943 8.86358L19.764 9.39391L20.2943 8.86358ZM22.7236 12.7071L22.1933 12.1767L22.7236 12.7071ZM22.7236 11.2928L22.1933 11.8232L22.7236 11.2928ZM11.2931 22.7234L10.7628 23.2537L11.2931 22.7234ZM12.7073 22.7234L13.2376 23.2537L12.7073 22.7234ZM8.86397 20.2942L9.3943 19.7639L8.86397 20.2942ZM3.70583 15.1361L4.23616 14.6058L3.70583 15.1361ZM1.27678 11.2928L0.74645 10.7625L1.27678 11.2928ZM3.70583 8.86379L3.1755 8.33346L3.70583 8.86379ZM8.86388 3.70574L9.39421 4.23607L8.86388 3.70574ZM15.1365 3.70574L15.6668 3.17541L15.1365 3.70574ZM12.7073 1.27654L12.177 1.80687L12.7073 1.27654ZM12.177 1.80687L14.6062 4.23607L15.6668 3.17541L13.2376 0.746206L12.177 1.80687ZM9.39421 4.23607L11.8234 1.80687L10.7628 0.746205L8.33355 3.17541L9.39421 4.23607ZM4.99873 4.74863H8.15678V3.24863H4.99873V4.74863ZM4.74873 8.15668V4.99863H3.24873V8.15668H4.74873ZM1.80711 11.8232L4.23616 9.39412L3.1755 8.33346L0.74645 10.7625L1.80711 11.8232ZM4.23616 14.6058L1.80711 12.1767L0.74645 13.2374L3.1755 15.6664L4.23616 14.6058ZM4.74873 19.0014V15.8432H3.24873V19.0014H4.74873ZM8.15687 19.2514H4.99873V20.7514H8.15687V19.2514ZM11.8234 22.193L9.3943 19.7639L8.33364 20.8246L10.7628 23.2537L11.8234 22.193ZM14.6061 19.7639L12.177 22.193L13.2376 23.2537L15.6667 20.8246L14.6061 19.7639ZM19.0015 19.2514H15.8435V20.7514H19.0015V19.2514ZM19.2515 15.8434V19.0014H20.7515V15.8434H19.2515ZM22.1933 12.1767L19.764 14.606L20.8247 15.6666L23.2539 13.2374L22.1933 12.1767ZM19.764 9.39391L22.1933 11.8232L23.2539 10.7625L20.8247 8.33325L19.764 9.39391ZM19.2515 4.99863V8.15648H20.7515V4.99863H19.2515ZM15.8436 4.74863H19.0015V3.24863H15.8436V4.74863ZM20.7515 4.99863C20.7515 4.03213 19.968 3.24863 19.0015 3.24863V4.74863C19.1395 4.74863 19.2515 4.86056 19.2515 4.99863H20.7515ZM20.8247 8.33325C20.7778 8.28637 20.7515 8.22278 20.7515 8.15648H19.2515C19.2515 8.62061 19.4358 9.06573 19.764 9.39391L20.8247 8.33325ZM23.2539 13.2374C23.9373 12.554 23.9373 11.4459 23.2539 10.7625L22.1933 11.8232C22.2909 11.9208 22.2909 12.0791 22.1933 12.1767L23.2539 13.2374ZM20.7515 15.8434C20.7515 15.7771 20.7778 15.7135 20.8247 15.6666L19.764 14.606C19.4358 14.9342 19.2515 15.3793 19.2515 15.8434H20.7515ZM19.0015 20.7514C19.968 20.7514 20.7515 19.9679 20.7515 19.0014H19.2515C19.2515 19.1394 19.1395 19.2514 19.0015 19.2514V20.7514ZM15.6667 20.8246C15.7136 20.7777 15.7772 20.7514 15.8435 20.7514V19.2514C15.3794 19.2514 14.9343 19.4357 14.6061 19.7639L15.6667 20.8246ZM10.7628 23.2537C11.4462 23.9371 12.5542 23.9371 13.2376 23.2537L12.177 22.193C12.0793 22.2907 11.921 22.2907 11.8234 22.193L10.7628 23.2537ZM8.15687 20.7514C8.22317 20.7514 8.28676 20.7777 8.33364 20.8246L9.3943 19.7639C9.06611 19.4357 8.62099 19.2514 8.15687 19.2514V20.7514ZM3.24873 19.0014C3.24873 19.9679 4.03223 20.7514 4.99873 20.7514V19.2514C4.86065 19.2514 4.74873 19.1394 4.74873 19.0014H3.24873ZM3.1755 15.6664C3.22239 15.7133 3.24873 15.7769 3.24873 15.8432H4.74873C4.74873 15.3791 4.56435 14.934 4.23616 14.6058L3.1755 15.6664ZM0.74645 10.7625C0.0630321 11.4459 0.0630326 12.554 0.74645 13.2374L1.80711 12.1767C1.70948 12.0791 1.70948 11.9208 1.80711 11.8232L0.74645 10.7625ZM3.24873 8.15668C3.24873 8.22298 3.22239 8.28657 3.1755 8.33346L4.23616 9.39412C4.56435 9.06593 4.74873 8.62081 4.74873 8.15668H3.24873ZM4.99873 3.24863C4.03223 3.24863 3.24873 4.03213 3.24873 4.99863H4.74873C4.74873 4.86056 4.86065 4.74863 4.99873 4.74863V3.24863ZM8.33355 3.17541C8.28667 3.22229 8.22308 3.24863 8.15678 3.24863V4.74863C8.62091 4.74863 9.06603 4.56425 9.39421 4.23607L8.33355 3.17541ZM14.6062 4.23607C14.9344 4.56425 15.3795 4.74863 15.8436 4.74863V3.24863C15.7773 3.24863 15.7137 3.22229 15.6668 3.17541L14.6062 4.23607ZM13.2376 0.746206C12.5542 0.062789 11.4462 0.0627874 10.7628 0.746205L11.8234 1.80687C11.921 1.70924 12.0793 1.70923 12.177 1.80687L13.2376 0.746206Z" fill="#FFBE1A" mask="url(#path-1-inside-1_1284_120584)"/>
</g>
<g filter="url(#filter0_d_1284_120584)">
<path fill-rule="evenodd" clip-rule="evenodd" d="M7.02698 8.93533C7.22826 8.58848 7.59897 8.375 8 8.375H9.75V10.295L11.9338 14.1167L13.75 10.4844V8.375H15.5C15.8899 8.375 16.252 8.57688 16.457 8.90855C16.662 9.24022 16.6806 9.65438 16.5062 10.0031L13.0062 17.0031C12.8207 17.3742 12.4459 17.6131 12.0312 17.6246C11.6165 17.6361 11.2291 17.4184 11.0232 17.0582L7.02323 10.0582C6.82426 9.70997 6.82569 9.28219 7.02698 8.93533Z" fill="white"/>
<path fill-rule="evenodd" clip-rule="evenodd" d="M7.02698 8.93533C7.22826 8.58848 7.59897 8.375 8 8.375H9.75V10.295L11.9338 14.1167L13.75 10.4844V8.375H15.5C15.8899 8.375 16.252 8.57688 16.457 8.90855C16.662 9.24022 16.6806 9.65438 16.5062 10.0031L13.0062 17.0031C12.8207 17.3742 12.4459 17.6131 12.0312 17.6246C11.6165 17.6361 11.2291 17.4184 11.0232 17.0582L7.02323 10.0582C6.82426 9.70997 6.82569 9.28219 7.02698 8.93533Z" stroke="#FFBE1A" stroke-width="0.25" stroke-linejoin="round"/>
</g>
<defs>
<filter id="filter0_d_1284_120584" x="6.75" y="8.25" width="10" height="10" filterUnits="userSpaceOnUse" color-interpolation-filters="sRGB">
<feFlood flood-opacity="0" result="BackgroundImageFix"/>
<feColorMatrix in="SourceAlpha" type="matrix" values="0 0 0 0 0 0 0 0 0 0 0 0 0 0 0 0 0 0 127 0" result="hardAlpha"/>
<feOffset dy="0.5"/>
<feComposite in2="hardAlpha" operator="out"/>
<feColorMatrix type="matrix" values="0 0 0 0 0.979427 0 0 0 0 0.737097 0 0 0 0 0.0359315 0 0 0 1 0"/>
<feBlend mode="normal" in2="BackgroundImageFix" result="effect1_dropShadow_1284_120584"/>
<feBlend mode="normal" in="SourceGraphic" in2="effect1_dropShadow_1284_120584" result="shape"/>
</filter>
<clipPath id="clip0_1284_120584">
<rect width="24" height="24" fill="white"/>
</clipPath>
</defs>
</svg>
